<?xml version="1.0" encoding="UTF-8"?>
<svg width="24" height="24" version="1.1" viewBox="0 0 6.35 6.35" xmlns="http://www.w3.org/2000/svg">
    <g transform="translate(-36.173 -93.796)">
        <g transform="matrix(.08 0 0 .08 40.527 88.485)">
            <path d="m53.295 119.35v-39.688h79.375v79.375h-79.375z" fill="#fcfdfd" stroke-width=".26458"/>
        </g>
        <g transform="matrix(1.3761 0 0 1.3825 -26.63 -38.456)" fill="#fff">
            <path transform="matrix(.08 0 0 .08 40.527 88.485)" d="m86.822 141.89c-4.738-4.7596-5.2168-5.3235-5.2168-6.1442 0-0.82158 0.47505-1.3787 5.2329-6.1365 4.7552-4.7552 5.3153-5.2329 6.1353-5.2329 0.81617 0 1.3676 0.46161 5.7678 4.8286 4.8692 4.8324 5.6182 5.7452 5.6182 6.8466 0 0.41218-1.5697 2.1641-5.2274 5.834-4.8206 4.8367-5.3 5.2449-6.1603 5.2449-0.86046 0-1.3378-0.40681-6.1497-5.2406zm22.168-12.455c-0.43656-0.27248-2.9071-2.6371-5.4901-5.2547-4.1957-4.2519-4.6964-4.8534-4.6964-5.6418 0-0.7938 0.52954-1.414 5.2644-6.1655 4.6582-4.6746 5.362-5.2829 6.1127-5.2829 0.75071 0 1.4546 0.60829 6.1127 5.2829 4.7729 4.7898 5.2644 5.3668 5.2644 6.1818 0 0.81542-0.48628 1.3851-5.2394 6.1382-5.6104 5.6104-5.7707 5.7142-7.3283 4.742zm-40.16-5.2731c-3.5636-3.5816-4.9518-5.1483-4.9518-5.5886 0-0.75745 9.3384-10.601 10.057-10.601 0.2584 0 0.54208 0.18833 0.63041 0.41851s0.1606 4.7624 0.1606 10.072c0 9.1098-0.10948 10.677-0.74606 10.677-0.10905 0-2.4266-2.2396-5.1501-4.9768zm13.2-1.5272c-0.08833-0.23018-0.1606-5.3558-0.1606-11.39 0-8.9734 0.06852-11.102 0.37621-11.686 0.20691-0.39296 2.447-2.7683 4.9781-5.2785 4.3226-4.2871 4.6624-4.5641 5.5987-4.5641 0.94583 0 1.2591 0.26717 6.1277 5.2255 4.658 4.7439 5.1315 5.3102 5.1376 6.1439 6e-3 0.85888-0.67407 1.6-10.506 11.443-5.782 5.7887-10.71 10.525-10.952 10.525s-0.51144-0.18833-0.59977-0.41852z" fill="#fff" stroke-width=".26458"/>
        </g>
    </g>
</svg>
