<?xml version="1.0" encoding="UTF-8"?>
<svg width="1024px" height="341px" viewBox="0 0 1024 341" version="1.1" xmlns="http://www.w3.org/2000/svg" xmlns:xlink="http://www.w3.org/1999/xlink">
    <title>Testflight</title>
    <defs>
        <linearGradient x1="50%" y1="0%" x2="50%" y2="100%" id="linearGradient-1">
            <stop stop-color="#00DAFF" offset="0%"></stop>
            <stop stop-color="#1D84F3" offset="100%"></stop>
        </linearGradient>
    </defs>
    <g id="Page-1" stroke="none" stroke-width="1" fill="none" fill-rule="evenodd">
        <g id="Testflight">
            <rect id="Rectangle" stroke="#000000" stroke-width="8.53333333" fill="#FFFFFF" x="4.26666667" y="4.26666667" width="1015.46667" height="332.466667" rx="55.4666667"></rect>
            <g id="Icon" transform="translate(55.000000, 62.000000)">
                <rect id="Origin-Color" fill="url(#linearGradient-1)" x="0" y="0" width="217" height="217" rx="47.9144385"></rect>
                <g id="Group" transform="translate(21.615234, 21.615234)">
                    <circle id="Oval" stroke-opacity="0.3" stroke="#FFFFFF" stroke-width="6.70802139" cx="86.8847656" cy="86.8847656" r="83.5307549"></circle>
                    <g id="Group-2" transform="translate(11.053419, 1.483398)" fill="#FFFFFF">
                        <path d="M79.5810381,0 C85.245501,0 85.9252366,7.01990596 85.93846,11.31497 L85.93846,11.4442795 C85.93846,32.6503742 84.7634517,51.4850883 82.413435,67.948422 C89.4641521,70.6075647 94.4797842,77.4187341 94.4797842,85.4013672 C94.4797842,86.0583362 94.445812,86.7073706 94.3795286,87.3468095 C109.342015,93.420609 125.671754,101.54987 143.368511,111.733408 L144.076183,112.141309 C147.784374,114.282234 153.66895,118.413788 150.80811,123.368908 L146.993657,129.975734 C144.161426,134.881303 137.742141,131.960018 134.015895,129.823938 L133.903909,129.759283 C116.152938,119.510755 100.869481,109.419277 88.0535369,99.4848489 C84.7817775,102.32864 80.5075618,104.049805 75.8313467,104.049805 C71.1261385,104.049805 66.82793,102.307232 63.5468777,99.4322415 C50.8878701,109.251562 35.817384,119.224358 18.335951,129.350603 L17.6288623,129.759513 C13.9206711,131.900439 7.40035282,134.930854 4.53951298,129.975734 L0.725059851,123.368908 C-2.10717159,118.463339 3.63237753,114.364718 7.34540037,112.205734 L7.45738569,112.141079 C25.4759772,101.73804 42.0831891,93.4559408 57.2790215,87.2947803 C57.2150996,86.6728671 57.1829092,86.0408764 57.1829092,85.4013672 C57.1829092,77.4655578 62.1398735,70.6875095 69.1264278,67.9945965 C66.8022256,51.7324933 65.6251493,33.1542115 65.5952928,12.2606316 L65.59471,11.4438194 C65.59471,7.16196909 66.2304522,0 71.9521319,0 L79.5810381,0 Z M93.1949859,92.2160911 L93.1349834,92.3679217 C92.6528587,93.5642972 92.0502576,94.6991836 91.342208,95.757553 C104.905271,105.931559 115.866392,113.444893 124.224688,118.297768 L135.896708,125.037091 L140.982645,116.227989 L129.604222,109.658653 C121.182419,104.796323 109.046007,98.9821359 93.1949859,92.2160911 Z M58.4491526,92.169701 C42.7234605,98.8785612 30.6507019,104.650985 22.2229595,109.489385 L10.5505249,116.227989 L15.6364624,125.037091 L27.014886,118.467755 C35.4269755,113.611033 46.5145206,106.019612 60.2775212,95.6934929 C59.5493078,94.5947124 58.9342819,93.414686 58.4491526,92.169701 Z M63.1311652,84.7853215 L63.1236512,85.0033136 L63.1236512,85.0033136 L63.1188367,85.1552812 C63.118382,85.1792349 63.1179936,85.2032048 63.1176715,85.2271907 C63.1168924,85.2852812 63.1165029,85.3432787 63.1165029,85.4013672 L63.1219883,85.7784794 C63.1237006,85.8372672 63.125812,85.895955 63.1283198,85.9545401 C63.1392052,86.2086183 63.1575002,86.4603116 63.1830125,86.7098682 C63.1884256,86.7628179 63.1941626,86.8156622 63.2002223,86.8684083 L63.1830125,86.7098682 C63.2156702,87.0293193 63.260154,87.3452692 63.3160192,87.6572729 C63.3203895,87.6816722 63.3246884,87.7052859 63.3290525,87.7288767 L63.3160192,87.6572729 C63.3389627,87.785411 63.3638258,87.9128835 63.3905779,88.0396596 L63.3290525,87.7288767 C63.3573449,87.8818163 63.3883745,88.0337958 63.4220886,88.1847625 C63.4789747,88.4395158 63.5435794,88.6916422 63.6155901,88.9406246 C63.6317316,88.9964304 63.6481635,89.0518099 63.6649611,89.1070303 C63.6934713,89.2007648 63.7231525,89.2943964 63.7538814,89.3875518 L63.6649611,89.1070303 C63.7017716,89.2280409 63.7403379,89.3482868 63.7806305,89.4677383 L63.7538814,89.3875518 C63.8039297,89.5392743 63.8567572,89.6897334 63.9123036,89.8388687 L63.7806305,89.4677383 C64.1005531,90.4161804 64.5293042,91.3145395 65.0520311,92.1479626 L65.2413189,92.4407701 C65.2591439,92.4675323 65.2770676,92.4942232 65.2950896,92.5208422 C65.4431104,92.7393368 65.5974059,92.9526639 65.7580134,93.1608714 C65.7768871,93.185409 65.795543,93.2094122 65.8142828,93.2333466 L65.7580134,93.1608714 C65.9403581,93.3972585 66.1308391,93.6270463 66.3290367,93.8498163 C66.3411039,93.8634074 66.3529714,93.8766889 66.3648663,93.8899452 L66.3290367,93.8498163 C66.521258,94.0658691 66.7207375,94.2753209 66.9270925,94.4777898 C66.9468267,94.4971602 66.966551,94.5163876 66.9863373,94.5355514 L66.9270925,94.4777898 C67.1382318,94.684953 67.356569,94.8848057 67.5816941,95.0769387 C67.6039316,95.0959173 67.6259487,95.1145781 67.64803,95.1331651 L67.5816941,95.0769387 C67.8067749,95.2690341 68.0386409,95.4534129 68.2768821,95.6296663 C70.3892978,97.1923554 73.0024332,98.1162109 75.8313467,98.1162109 C78.6156239,98.1162109 81.1908787,97.2212796 83.2851512,95.7033769 C83.2852007,95.703488 83.2848689,95.7032187 83.2845372,95.7029493 C83.7099128,95.3949243 84.1153998,95.0611777 84.4987432,94.7039998 C84.5240519,94.680719 84.5490825,94.6571982 84.5740175,94.6335774 L84.4987432,94.7039998 C84.6913782,94.5245133 84.8784216,94.3391098 85.0595872,94.1480801 C85.0919154,94.1141291 85.1238694,94.0800545 85.155637,94.0458045 L85.0595872,94.1480801 C85.1605131,94.041659 85.2596148,93.9334917 85.3568428,93.8236285 L85.155637,94.0458045 C85.234339,93.9609528 85.3118969,93.8750249 85.3882863,93.7880455 L85.3568428,93.8236285 C85.4446379,93.7244242 85.5309053,93.623837 85.6156085,93.521904 L85.3882863,93.7880455 C85.5049934,93.6551593 85.6189729,93.5198185 85.7301374,93.3821109 L85.6156085,93.521904 C85.69274,93.429083 85.7685744,93.3351461 85.8430843,93.2401211 L85.7301374,93.3821109 C85.7966995,93.2996554 85.8622524,93.2163514 85.9267773,93.1322175 L85.8430843,93.2401211 C86.0230028,93.0106651 86.1951984,92.7748652 86.3592837,92.5331147 C86.3721232,92.5141977 86.3847111,92.4955443 86.3972507,92.4768557 L86.3592837,92.5331147 C86.4238709,92.437957 86.4872016,92.3418773 86.5492521,92.2448996 L86.3972507,92.4768557 C86.9416834,91.6654556 87.395126,90.7878805 87.7429698,89.8587391 L87.7256116,89.9053558 C87.8165674,89.6652307 87.9004665,89.4216144 87.9770533,89.1747632 C87.9861601,89.1449916 87.9953339,89.1150386 88.0044,89.0850388 L87.9770533,89.1747632 C88.0599634,88.9075307 88.1343037,88.6365071 88.1997495,88.3620178 C88.2073296,88.329927 88.2147296,88.2983542 88.2220117,88.2667364 L88.1997495,88.3620178 C88.2276138,88.2451513 88.2538657,88.1276565 88.2784802,88.0095587 L88.2220117,88.2667364 C88.2533831,88.1305268 88.2825664,87.9934807 88.3095224,87.8556374 L88.2784802,88.0095587 C88.3131201,87.8433607 88.3445171,87.6759683 88.3726017,87.5074515 C88.3735964,87.501315 88.3747021,87.494651 88.3758026,87.4879852 L88.3726017,87.5074515 C88.3928358,87.3860397 88.4113505,87.2640443 88.4281195,87.1414913 L88.3758026,87.4879852 C88.4001868,87.3402875 88.4220256,87.1917313 88.4412725,87.0423631 L88.4281195,87.1414913 C88.4466116,87.0063458 88.462981,86.8705223 88.4771926,86.734056 L88.4412725,87.0423631 C88.4590727,86.9042214 88.474656,86.7653853 88.4879854,86.6258915 L88.5176934,86.2594741 C88.5252166,86.1465695 88.5312664,86.0332611 88.5358234,85.9195681 C88.5382661,85.858619 88.5402805,85.7975511 88.5418627,85.7363756 L88.5358234,85.9195681 C88.5427126,85.7476911 88.5461904,85.5749353 88.5461904,85.4013672 C88.5461904,80.4071747 85.6668348,76.0854918 81.4776305,74.0058254 L81.4777218,74.0072819 C81.0981654,73.8184784 80.7078644,73.648182 80.3079843,73.4975317 C80.2987549,73.4935022 80.2897239,73.4901165 80.280688,73.4867407 L80.3079843,73.4975317 C80.1700423,73.4455637 80.0309604,73.3959334 79.8907865,73.3486877 L80.280688,73.4867407 C80.139568,73.4340187 79.9972603,73.3837321 79.8538158,73.335932 L79.8907865,73.3486877 C79.7649191,73.306264 79.6381711,73.265763 79.5105773,73.2272185 L79.8538158,73.335932 C79.7165429,73.2901885 79.578229,73.2467221 79.4389189,73.2055777 L79.5105773,73.2272185 C79.3568312,73.1807737 79.2018569,73.1371697 79.0457151,73.0964656 L79.4389189,73.2055777 C79.3024184,73.1652631 79.1649615,73.1271777 79.0265904,73.0913638 L79.0457151,73.0964656 C78.9055568,73.0599282 78.7644577,73.0257274 78.6224617,72.9939061 L79.0265904,73.0913638 C78.8865587,73.05512 78.7455908,73.0212026 78.6037302,72.9896551 L78.6224617,72.9939061 C78.4780977,72.9615542 78.3328066,72.9316617 78.1866344,72.9042737 L78.6037302,72.9896551 C78.4550732,72.9565962 78.3054359,72.9261397 78.1548688,72.8983361 L78.1866344,72.9042737 C78.0527466,72.8791874 77.9181196,72.8562024 77.7827887,72.8353531 L78.1548688,72.8983361 C78.0079296,72.8712023 77.8601048,72.8465951 77.7114411,72.824561 L77.7827887,72.8353531 C77.6349437,72.812576 77.4862587,72.7923479 77.3367798,72.774714 L77.7114411,72.824561 C77.548184,72.800364 77.3839152,72.7792702 77.2186967,72.7613414 L77.3367798,72.774714 C77.1886439,72.7572385 77.0397283,72.7423108 76.890078,72.7299748 L77.2186967,72.7613414 C76.7630381,72.7118955 76.3001554,72.6865234 75.8313467,72.6865234 C75.445451,72.6865234 75.0635705,72.7037146 74.6864293,72.7373728 L74.2564713,72.7830974 C74.241432,72.7849553 74.2264007,72.7868394 74.2113777,72.7887498 C74.0786948,72.8057584 73.9464955,72.8246847 73.8149678,72.8456296 L74.2113777,72.7887498 C74.0700071,72.8067267 73.9293612,72.827025 73.7894793,72.8496053 L73.8149678,72.8456296 C73.668216,72.8689988 73.5223002,72.894881 73.3772661,72.9232305 L73.7894793,72.8496053 C73.6302815,72.8753037 73.4720734,72.9039578 73.314913,72.9355096 L73.3772661,72.9232305 C73.0855675,72.9802482 72.797435,73.0472466 72.5132394,73.1238546 C72.4935797,73.129125 72.4738986,73.1344822 72.4542367,73.1398854 L72.5132394,73.1238546 C72.3806987,73.1595824 72.2490142,73.1974003 72.1182237,73.2372706 L72.4542367,73.1398854 C72.3172492,73.1775301 72.1811867,73.217409 72.0460908,73.2594804 L72.1182237,73.2372706 C71.9712257,73.2820817 71.825357,73.3294854 71.6806709,73.3794283 L72.0460908,73.2594804 C71.9002213,73.304907 71.7554788,73.3528898 71.6119157,73.4033764 L71.6806709,73.3794283 C71.5539439,73.4231721 71.4281243,73.4688638 71.3032477,73.5164676 L71.6119157,73.4033764 C71.4758443,73.4512284 71.3408323,73.5013297 71.2069245,73.5536357 L71.3032477,73.5164676 C71.155133,73.5729299 71.0083452,73.6320822 70.862944,73.6938644 L71.2069245,73.5536357 C71.0687083,73.6076246 70.9316684,73.6639623 70.7958539,73.7225998 L70.862944,73.6938644 C70.7443553,73.7442538 70.6266891,73.7963926 70.5099778,73.8502484 L70.7958539,73.7225998 C70.6702551,73.7768267 70.5457043,73.8330204 70.4222402,73.8911421 L70.5099778,73.8502484 C70.360115,73.9194017 70.2118267,73.9913859 70.0651815,74.0661322 L69.8343923,74.1867701 C66.0061576,76.2381902 63.3502664,80.1925228 63.1311652,84.7853215 Z M80.8525225,12.0795616 L70.6806475,12.0795616 L70.6806475,25.2182335 C70.6806475,35.2020845 71.7694169,49.0782862 73.9469557,66.8468384 C74.5670735,66.7847531 75.1954937,66.7529297 75.8313467,66.7529297 C76.4236116,66.7529297 77.0094279,66.7805396 77.5875786,66.8345426 C79.7397051,49.2722362 80.8278332,35.513223 80.8521071,25.5574884 L80.8525225,12.0795616 Z" id="Combined-Shape"></path>
                        <path d="M76.264361,78.6651744 C76.2758712,78.6758625 76.2869817,78.686973 76.2976698,78.6984832 L76.528626,78.9472053 C76.9658171,79.4180264 77.2087881,80.0367609 77.2087881,80.6792627 L77.2083093,84.0236409 L80.5534512,84.0239258 C81.195953,84.0239258 81.8146874,84.2668968 82.2855085,84.7040878 L82.5342306,84.9350441 C82.7917738,85.1741913 82.8066867,85.5768384 82.5675394,85.8343815 L82.5342306,85.8676903 L82.5342306,85.8676903 L82.2855085,86.0986466 C81.8146874,86.5358376 81.195953,86.7788086 80.5534512,86.7788086 L77.2083093,86.7786409 L77.2087881,90.1234717 C77.2087881,90.7659735 76.9658171,91.3847079 76.528626,91.8555291 L76.2976698,92.1042512 C76.0585226,92.3617943 75.6558755,92.3767072 75.3983323,92.13756 C75.3868221,92.1268719 75.3757116,92.1157614 75.3650235,92.1042512 L75.1340673,91.8555291 C74.6968762,91.3847079 74.4539053,90.7659735 74.4539053,90.1234717 L74.4533093,86.7786409 L71.1092421,86.7788086 C70.4667404,86.7788086 69.8480059,86.5358376 69.3771848,86.0986466 L69.1284627,85.8676903 C68.8709195,85.6285431 68.8560067,85.225896 69.0951539,84.9683529 C69.1058419,84.9568426 69.1169525,84.9457321 69.1284627,84.9350441 L69.3771848,84.7040878 C69.8480059,84.2668968 70.4667404,84.0239258 71.1092421,84.0239258 L74.4533093,84.0236409 L74.4539053,80.6792627 C74.4539053,80.0367609 74.6968762,79.4180264 75.1340673,78.9472053 L75.3650235,78.6984832 C75.6041707,78.44094 76.0068178,78.4260272 76.264361,78.6651744 Z" id="Combined-Shape" opacity="0.3" transform="translate(75.831347, 85.401367) rotate(45.000000) translate(-75.831347, -85.401367) "></path>
                    </g>
                </g>
            </g>
            <text id="Get-the-beta-on" font-family="SFProDisplay-Medium, SF Pro Display" font-size="76.8" font-weight="400" fill="#000000">
                <tspan x="315.733333" y="124.15">Get the beta on</tspan>
            </text>
            <text id="TestFlight" font-family="SFProDisplay-Medium, SF Pro Display" font-size="119.466667" font-weight="400" fill="#000000">
                <tspan x="307.2" y="258.855176">TestFlight</tspan>
            </text>
        </g>
    </g>
</svg>