<?xml version="1.0" encoding="UTF-8"?>
<svg width="1024px" height="341px" viewBox="0 0 1024 341" version="1.1" xmlns="http://www.w3.org/2000/svg" xmlns:xlink="http://www.w3.org/1999/xlink">
    <title>testflight</title>
    <defs>
        <linearGradient x1="50%" y1="0%" x2="50%" y2="100%" id="linearGradient-1">
            <stop stop-color="#00DAFF" offset="0%"></stop>
            <stop stop-color="#1D84F3" offset="100%"></stop>
        </linearGradient>
        <path d="M339.404166,120.783333 C353.841666,120.783333 362.354166,112.120833 362.354166,97.4958333 L362.354166,92.3583333 L340.341666,92.3583333 L340.341666,98.2833333 L355.604166,98.2833333 L355.604166,99.2583333 C355.604166,108.333333 349.004166,114.558333 339.404166,114.558333 C328.379166,114.558333 321.516666,106.158333 321.516666,92.5458333 L321.516666,92.5083333 C321.516666,79.1583333 328.266666,71.0958333 339.404166,71.0958333 C347.016666,71.0958333 352.266666,75.0333333 354.779166,81.8958333 L354.929166,82.3083333 L362.016666,82.3083333 L361.829166,81.5958333 C359.316666,72.0333333 351.854166,64.8708333 339.404166,64.8708333 C324.291666,64.8708333 314.616666,75.5958333 314.616666,92.5083333 L314.616666,92.5458333 C314.616666,109.795833 324.291666,120.783333 339.404166,120.783333 Z M386.016666,120.633333 C394.529166,120.633333 400.904166,115.533333 402.179166,109.083333 L402.254166,108.708333 L395.841666,108.708333 L395.729166,109.045833 C394.604166,112.383333 391.116666,114.858333 386.166666,114.858333 C379.229166,114.858333 374.804166,110.170833 374.654166,102.145833 L402.741666,102.145833 L402.741666,99.7458333 C402.741666,88.0458333 396.254166,80.1333333 385.604166,80.1333333 C374.954166,80.1333333 368.054166,88.4208333 368.054166,100.495833 L368.054166,100.533333 C368.054166,112.795833 374.804166,120.633333 386.016666,120.633333 Z M396.104166,97.0458333 L374.766666,97.0458333 C375.479166,89.7708333 379.904166,85.9083333 385.566666,85.9083333 C391.266666,85.9083333 395.466666,89.4708333 396.104166,97.0458333 Z M421.979166,120.633333 C423.254166,120.633333 424.641666,120.483333 425.466666,120.370833 L425.466666,115.083333 C424.904166,115.120833 424.154166,115.233333 423.366666,115.233333 C419.879166,115.233333 418.041666,114.070833 418.041666,109.908333 L418.041666,86.2833333 L425.466666,86.2833333 L425.466666,80.8833333 L418.041666,80.8833333 L418.041666,70.3458333 L411.291666,70.3458333 L411.291666,80.8833333 L405.591666,80.8833333 L405.591666,86.2833333 L411.291666,86.2833333 L411.291666,109.945833 C411.291666,117.408333 414.816666,120.633333 421.979166,120.633333 Z M460.866666,120.633333 C462.141666,120.633333 463.529166,120.483333 464.354166,120.370833 L464.354166,115.083333 C463.791666,115.120833 463.041666,115.233333 462.254166,115.233333 C458.766666,115.233333 456.929166,114.070833 456.929166,109.908333 L456.929166,86.2833333 L464.354166,86.2833333 L464.354166,80.8833333 L456.929166,80.8833333 L456.929166,70.3458333 L450.179166,70.3458333 L450.179166,80.8833333 L444.479166,80.8833333 L444.479166,86.2833333 L450.179166,86.2833333 L450.179166,109.945833 C450.179166,117.408333 453.704166,120.633333 460.866666,120.633333 Z M478.191666,119.883333 L478.191666,97.1208333 C478.191666,90.4833333 482.204166,85.9083333 488.241666,85.9083333 C494.316666,85.9083333 497.916666,90.0708333 497.916666,97.1208333 L497.916666,119.883333 L504.441666,119.883333 L504.441666,95.9958333 C504.441666,86.5458333 498.779166,80.1333333 490.491666,80.1333333 C484.679166,80.1333333 480.441666,82.7208333 478.341666,87.1083333 L478.191666,87.1083333 L478.191666,65.7708333 L471.666666,65.7708333 L471.666666,119.883333 L478.191666,119.883333 Z M528.779166,120.633333 C537.291666,120.633333 543.666666,115.533333 544.941666,109.083333 L545.016666,108.708333 L538.604166,108.708333 L538.491666,109.045833 C537.366666,112.383333 533.879166,114.858333 528.929166,114.858333 C521.991666,114.858333 517.566666,110.170833 517.416666,102.145833 L545.504166,102.145833 L545.504166,99.7458333 C545.504166,88.0458333 539.016666,80.1333333 528.366666,80.1333333 C517.716666,80.1333333 510.816666,88.4208333 510.816666,100.495833 L510.816666,100.533333 C510.816666,112.795833 517.566666,120.633333 528.779166,120.633333 Z M538.866666,97.0458333 L517.529166,97.0458333 C518.241666,89.7708333 522.666666,85.9083333 528.329166,85.9083333 C534.029166,85.9083333 538.229166,89.4708333 538.866666,97.0458333 Z M587.204166,120.633333 C597.179166,120.633333 603.779166,112.683333 603.779166,100.383333 L603.779166,100.345833 C603.779166,88.0458333 597.104166,80.1333333 587.316666,80.1333333 C581.804166,80.1333333 577.266666,82.9083333 574.829166,87.4083333 L574.679166,87.4083333 L574.679166,65.7708333 L568.154166,65.7708333 L568.154166,119.883333 L574.679166,119.883333 L574.679166,113.283333 L574.829166,113.283333 C577.266666,117.820833 581.616666,120.633333 587.204166,120.633333 Z M585.929166,114.858333 C579.329166,114.858333 574.641666,109.120833 574.641666,100.383333 L574.641666,100.345833 C574.641666,91.6458333 579.366666,85.9083333 585.929166,85.9083333 C592.829166,85.9083333 597.104166,91.4583333 597.104166,100.345833 L597.104166,100.383333 C597.104166,109.345833 592.829166,114.858333 585.929166,114.858333 Z M626.391666,120.633333 C634.904166,120.633333 641.279166,115.533333 642.554166,109.083333 L642.629166,108.708333 L636.216666,108.708333 L636.104166,109.045833 C634.979166,112.383333 631.491666,114.858333 626.541666,114.858333 C619.604166,114.858333 615.179166,110.170833 615.029166,102.145833 L643.116666,102.145833 L643.116666,99.7458333 C643.116666,88.0458333 636.629166,80.1333333 625.979166,80.1333333 C615.329166,80.1333333 608.429166,88.4208333 608.429166,100.495833 L608.429166,100.533333 C608.429166,112.795833 615.179166,120.633333 626.391666,120.633333 Z M636.479166,97.0458333 L615.141666,97.0458333 C615.854166,89.7708333 620.279166,85.9083333 625.941666,85.9083333 C631.641666,85.9083333 635.841666,89.4708333 636.479166,97.0458333 Z M662.354166,120.633333 C663.629166,120.633333 665.016666,120.483333 665.841666,120.370833 L665.841666,115.083333 C665.279166,115.120833 664.529166,115.233333 663.741666,115.233333 C660.254166,115.233333 658.416666,114.070833 658.416666,109.908333 L658.416666,86.2833333 L665.841666,86.2833333 L665.841666,80.8833333 L658.416666,80.8833333 L658.416666,70.3458333 L651.666666,70.3458333 L651.666666,80.8833333 L645.966666,80.8833333 L645.966666,86.2833333 L651.666666,86.2833333 L651.666666,109.945833 C651.666666,117.408333 655.191666,120.633333 662.354166,120.633333 Z M683.466666,120.633333 C688.679166,120.633333 693.366666,117.820833 695.654166,113.545833 L695.804166,113.545833 L695.804166,119.883333 L702.329166,119.883333 L702.329166,92.9208333 C702.329166,85.1208333 696.554166,80.1333333 687.329166,80.1333333 C678.141666,80.1333333 672.554166,85.3083333 671.991666,91.7208333 L671.954166,92.1333333 L678.254166,92.1333333 L678.329166,91.7958333 C679.079166,88.3083333 682.229166,85.9083333 687.254166,85.9083333 C692.691666,85.9083333 695.804166,88.7958333 695.804166,93.5583333 L695.804166,96.8208333 L684.629166,97.4583333 C675.666666,97.9833333 670.491666,102.145833 670.491666,108.783333 L670.491666,108.858333 C670.491666,115.945833 675.704166,120.633333 683.466666,120.633333 Z M684.929166,114.970833 C680.241666,114.970833 677.166666,112.608333 677.166666,108.858333 L677.166666,108.783333 C677.166666,105.145833 680.166666,102.820833 685.379166,102.520833 L695.804166,101.883333 L695.804166,105.070833 C695.804166,110.733333 691.079166,114.970833 684.929166,114.970833 Z M742.529166,120.633333 C753.291666,120.633333 760.566666,112.833333 760.566666,100.383333 L760.566666,100.308333 C760.566666,87.8583333 753.254166,80.1333333 742.491666,80.1333333 C731.729166,80.1333333 724.454166,87.8958333 724.454166,100.308333 L724.454166,100.383333 C724.454166,112.795833 731.691666,120.633333 742.529166,120.633333 Z M742.566666,114.858333 C735.666666,114.858333 731.129166,109.570833 731.129166,100.383333 L731.129166,100.308333 C731.129166,91.1958333 735.704166,85.9083333 742.491666,85.9083333 C749.391666,85.9083333 753.891666,91.1583333 753.891666,100.308333 L753.891666,100.383333 C753.891666,109.533333 749.429166,114.858333 742.566666,114.858333 Z M773.654166,119.883333 L773.654166,96.9333333 C773.654166,90.2958333 777.666666,85.9083333 783.816666,85.9083333 C789.816666,85.9083333 792.779166,89.3958333 792.779166,95.7333333 L792.779166,119.883333 L799.304166,119.883333 L799.304166,94.5708333 C799.304166,85.6833333 794.354166,80.1333333 785.804166,80.1333333 C779.879166,80.1333333 775.904166,82.7958333 773.804166,86.4333333 L773.654166,86.4333333 L773.654166,80.8833333 L767.129166,80.8833333 L767.129166,119.883333 L773.654166,119.883333 Z" id="path-2"></path>
        <path d="M342.891667,254.588509 L342.891667,179.863509 L369.433334,179.863509 L369.433334,170.413509 L305.85,170.413509 L305.85,179.863509 L332.391667,179.863509 L332.391667,254.588509 L342.891667,254.588509 Z M388.158334,255.755176 C401.4,255.755176 411.316667,247.821843 413.3,237.788509 L413.416667,237.205176 L403.441667,237.205176 L403.266667,237.730176 C401.516667,242.921843 396.091667,246.771843 388.391667,246.771843 C377.6,246.771843 370.716667,239.480176 370.483334,226.996843 L414.175,226.996843 L414.175,223.263509 C414.175,205.063509 404.083334,192.755176 387.516667,192.755176 C370.95,192.755176 360.216667,205.646843 360.216667,224.430176 L360.216667,224.488509 C360.216667,243.563509 370.716667,255.755176 388.158334,255.755176 Z M403.85,219.063509 L370.658334,219.063509 C371.766667,207.746843 378.65,201.738509 387.458334,201.738509 C396.325,201.738509 402.858334,207.280176 403.85,219.063509 Z M445.908334,255.755176 C459.441667,255.755176 469.475,248.288509 469.475,237.671843 L469.475,237.613509 C469.475,228.980176 465.041667,224.138509 452.791667,221.163509 L443.166667,218.830176 C436.458334,217.196843 433.716667,214.338509 433.716667,210.196843 L433.716667,210.138509 C433.716667,204.771843 438.266667,201.213509 445.616667,201.213509 C453.141667,201.213509 457.633334,205.121843 458.45,211.013509 L458.508334,211.421843 L468.191667,211.421843 L468.133334,210.663509 C467.375,200.513509 458.916667,192.755176 445.616667,192.755176 C432.491667,192.755176 423.333334,200.163509 423.333334,210.605176 L423.333334,210.663509 C423.333334,219.413509 428.875,224.721843 440.308334,227.463509 L449.933334,229.796843 C456.816667,231.488509 459.091667,233.938509 459.091667,238.313509 L459.091667,238.371843 C459.091667,243.855176 454.191667,247.296843 445.966667,247.296843 C437.683334,247.296843 433.191667,243.738509 431.966667,237.671843 L431.85,237.088509 L421.7,237.088509 L421.758334,237.613509 C422.983334,248.463509 431.616667,255.755176 445.908334,255.755176 Z M499.691667,255.755176 C501.675001,255.755176 503.833334,255.521843 505.116667,255.346843 L505.116667,247.121843 C504.241667,247.180176 503.075001,247.355176 501.850001,247.355176 C496.425001,247.355176 493.566667,245.546843 493.566667,239.071843 L493.566667,202.321843 L505.116667,202.321843 L505.116667,193.921842 L493.566667,193.921842 L493.566667,177.530176 L483.066667,177.530176 L483.066667,193.921842 L474.2,193.921842 L474.2,202.321843 L483.066667,202.321843 L483.066667,239.130176 C483.066667,250.738509 488.550001,255.755176 499.691667,255.755176 Z M528.041667,254.588509 L528.041667,218.130176 L565.316667,218.130176 L565.316667,208.796843 L528.041667,208.796843 L528.041667,179.863509 L568.641667,179.863509 L568.641667,170.413509 L517.541667,170.413509 L517.541667,254.588509 L528.041667,254.588509 Z M589.700001,254.588509 L589.700001,170.413509 L579.550001,170.413509 L579.550001,254.588509 L589.700001,254.588509 Z M609.125001,183.655176 C612.683334,183.655176 615.483334,180.796842 615.483334,177.296842 C615.483334,173.738509 612.683334,170.938509 609.125001,170.938509 C605.625001,170.938509 602.766667,173.738509 602.766667,177.296842 C602.766667,180.796842 605.625001,183.655176 609.125001,183.655176 Z M614.200001,254.588509 L614.200001,193.921842 L604.050001,193.921842 L604.050001,254.588509 L614.200001,254.588509 Z M653.691668,276.171843 C670.141668,276.171843 680.466668,266.955176 680.466668,252.896843 L680.466668,193.921842 L670.316668,193.921842 L670.316668,204.188509 L670.083334,204.188509 C666.350001,197.421843 659.583334,192.755176 651.008334,192.755176 C635.608334,192.755176 625.050001,205.005176 625.050001,223.846843 L625.050001,223.905176 C625.050001,242.863509 635.491668,255.171843 650.775001,255.171843 C659.466668,255.171843 666.466668,250.855176 670.083334,244.146843 L670.316668,244.146843 L670.316668,251.905176 C670.316668,261.296843 664.250001,267.188509 653.575001,267.188509 C645.291668,267.188509 639.516668,264.505176 637.591668,260.130176 L637.358334,259.605176 L627.150001,259.605176 L627.266668,260.130176 C629.250001,269.113509 638.700001,276.171843 653.691668,276.171843 Z M652.991668,246.188509 C642.200001,246.188509 635.433334,237.671843 635.433334,223.905176 L635.433334,223.846843 C635.433334,210.371843 642.200001,201.738509 652.991668,201.738509 C663.258334,201.738509 670.316668,210.488509 670.316668,223.846843 L670.316668,223.905176 C670.316668,237.380176 663.316668,246.188509 652.991668,246.188509 Z M704.266668,254.588509 L704.266668,219.180176 C704.266668,208.855176 710.508334,201.738509 719.900001,201.738509 C729.350001,201.738509 734.950001,208.213509 734.950001,219.180176 L734.950001,254.588509 L745.100001,254.588509 L745.100001,217.430176 C745.100001,202.730176 736.291668,192.755176 723.400001,192.755176 C714.358334,192.755176 707.766668,196.780176 704.500001,203.605176 L704.266668,203.605176 L704.266668,170.413509 L694.116668,170.413509 L694.116668,254.588509 L704.266668,254.588509 Z M777.708335,255.755176 C779.691668,255.755176 781.850001,255.521843 783.133335,255.346843 L783.133335,247.121843 C782.258335,247.180176 781.091668,247.355176 779.866668,247.355176 C774.441668,247.355176 771.583335,245.546843 771.583335,239.071843 L771.583335,202.321843 L783.133335,202.321843 L783.133335,193.921842 L771.583335,193.921842 L771.583335,177.530176 L761.083335,177.530176 L761.083335,193.921842 L752.216668,193.921842 L752.216668,202.321843 L761.083335,202.321843 L761.083335,239.130176 C761.083335,250.738509 766.566668,255.755176 777.708335,255.755176 Z" id="path-3"></path>
    </defs>
    <g id="Page-1" stroke="none" stroke-width="1" fill="none" fill-rule="evenodd">
        <g id="Get_the_beta_on_Testflight" transform="translate(4.266667, 4.266667)">
            <rect id="Rectangle" stroke="#000000" stroke-width="8.53333333" fill="#FFFFFF" fill-rule="nonzero" x="0" y="0" width="1015.46667" height="332.466667" rx="55.4666667"></rect>
            <g id="Icon" transform="translate(50.733333, 57.733333)">
                <rect id="Origin-Color" fill="url(#linearGradient-1)" fill-rule="nonzero" x="0" y="0" width="217" height="217" rx="47.9144385"></rect>
                <g id="Group" transform="translate(24.969245, 23.098632)">
                    <circle id="Oval" stroke-opacity="0.3" stroke="#FFFFFF" stroke-width="6.70802139" cx="83.5307549" cy="85.4013676" r="83.5307549"></circle>
                    <g id="Group-2" transform="translate(7.665521, 0.000000)" fill="#FFFFFF" fill-rule="nonzero">
                        <path d="M79.6149258,0 C85.2793887,0 85.9591243,7.01990596 85.9723477,11.31497 L85.9723477,11.4442795 C85.9723477,32.6503742 84.7973394,51.4850883 82.4473227,67.948422 C89.4980398,70.6075647 94.5136719,77.4187341 94.5136719,85.4013672 C94.5136719,86.0583362 94.4796997,86.7073706 94.4134163,87.3468095 C109.375903,93.420609 125.705642,101.54987 143.402399,111.733408 L144.110071,112.141309 C147.818262,114.282234 153.702838,118.413788 150.841998,123.368908 L147.027545,129.975734 C144.195314,134.881303 137.776029,131.960018 134.049783,129.823938 L133.937797,129.759283 C116.186826,119.510755 100.903369,109.419277 88.0874246,99.4848489 C84.8156652,102.32864 80.5414495,104.049805 75.8652344,104.049805 C71.1600262,104.049805 66.8618177,102.307232 63.5807654,99.4322415 C50.9217578,109.251562 35.8512717,119.224358 18.3698387,129.350603 L17.66275,129.759513 C13.9545588,131.900439 7.43424053,134.930854 4.57340069,129.975734 L0.758947561,123.368908 C-2.07328388,118.463339 3.66626524,114.364718 7.37928808,112.205734 L7.4912734,112.141079 C25.5098649,101.73804 42.1170768,93.4559408 57.3129092,87.2947803 C57.2489873,86.6728671 57.2167969,86.0408764 57.2167969,85.4013672 C57.2167969,77.4655578 62.1737612,70.6875095 69.1603155,67.9945965 C66.8361133,51.7324933 65.659037,33.1542115 65.6291805,12.2606316 L65.6285977,11.4438194 C65.6285977,7.16196909 66.2643399,0 71.9860196,0 L79.6149258,0 Z M93.2288736,92.2160911 L93.1688711,92.3679217 C92.6867464,93.5642972 92.0841453,94.6991836 91.3760957,95.757553 C104.939159,105.931559 115.90028,113.444893 124.258576,118.297768 L135.930596,125.037091 L141.016533,116.227989 L129.63811,109.658653 C121.216307,104.796323 109.079895,98.9821359 93.2288736,92.2160911 Z M58.4830403,92.169701 C42.7573482,98.8785612 30.6845896,104.650985 22.2568472,109.489385 L10.5844126,116.227989 L15.6703501,125.037091 L27.0487737,118.467755 C35.4608632,113.611033 46.5484083,106.019612 60.3114089,95.6934929 C59.5831955,94.5947124 58.9681696,93.414686 58.4830403,92.169701 Z M63.1650529,84.7853215 L63.1575389,85.0033136 L63.1575389,85.0033136 L63.1527244,85.1552812 C63.1522697,85.1792349 63.1518813,85.2032048 63.1515592,85.2271907 C63.1507801,85.2852812 63.1503906,85.3432787 63.1503906,85.4013672 L63.155876,85.7784794 C63.1575883,85.8372672 63.1596997,85.895955 63.1622075,85.9545401 C63.1730929,86.2086183 63.1913879,86.4603116 63.2169002,86.7098682 C63.2223133,86.7628179 63.2280503,86.8156622 63.23411,86.8684083 L63.2169002,86.7098682 C63.2495579,87.0293193 63.2940417,87.3452692 63.3499069,87.6572729 C63.3542772,87.6816722 63.3585761,87.7052859 63.3629402,87.7288767 L63.3499069,87.6572729 C63.3728504,87.785411 63.3977135,87.9128835 63.4244656,88.0396596 L63.3629402,87.7288767 C63.3912326,87.8818163 63.4222622,88.0337958 63.4559763,88.1847625 C63.5128624,88.4395158 63.5774671,88.6916422 63.6494778,88.9406246 C63.6656193,88.9964304 63.6820512,89.0518099 63.6988488,89.1070303 C63.727359,89.2007648 63.7570402,89.2943964 63.7877691,89.3875518 L63.6988488,89.1070303 C63.7356593,89.2280409 63.7742256,89.3482868 63.8145182,89.4677383 L63.7877691,89.3875518 C63.8378174,89.5392743 63.8906449,89.6897334 63.9461913,89.8388687 L63.8145182,89.4677383 C64.1344408,90.4161804 64.5631919,91.3145395 65.0859188,92.1479626 L65.2752066,92.4407701 C65.2930316,92.4675323 65.3109553,92.4942232 65.3289773,92.5208422 C65.4769981,92.7393368 65.6312936,92.9526639 65.7919011,93.1608714 C65.8107748,93.185409 65.8294307,93.2094122 65.8481705,93.2333466 L65.7919011,93.1608714 C65.9742458,93.3972585 66.1647268,93.6270463 66.3629244,93.8498163 C66.3749916,93.8634074 66.3868591,93.8766889 66.398754,93.8899452 L66.3629244,93.8498163 C66.5551457,94.0658691 66.7546252,94.2753209 66.9609802,94.4777898 C66.9807144,94.4971602 67.0004387,94.5163876 67.020225,94.5355514 L66.9609802,94.4777898 C67.1721195,94.684953 67.3904567,94.8848057 67.6155818,95.0769387 C67.6378193,95.0959173 67.6598364,95.1145781 67.6819177,95.1331651 L67.6155818,95.0769387 C67.8406626,95.2690341 68.0725286,95.4534129 68.3107698,95.6296663 C70.4231855,97.1923554 73.0363209,98.1162109 75.8652344,98.1162109 C78.6495116,98.1162109 81.2247664,97.2212796 83.3190389,95.7033769 C83.3190884,95.703488 83.3187566,95.7032187 83.3184249,95.7029493 C83.7438005,95.3949243 84.1492875,95.0611777 84.5326309,94.7039998 C84.5579396,94.680719 84.5829702,94.6571982 84.6079052,94.6335774 L84.5326309,94.7039998 C84.7252659,94.5245133 84.9123093,94.3391098 85.0934749,94.1480801 C85.1258031,94.1141291 85.1577571,94.0800545 85.1895247,94.0458045 L85.0934749,94.1480801 C85.1944008,94.041659 85.2935025,93.9334917 85.3907305,93.8236285 L85.1895247,94.0458045 C85.2682267,93.9609528 85.3457846,93.8750249 85.422174,93.7880455 L85.3907305,93.8236285 C85.4785256,93.7244242 85.564793,93.623837 85.6494962,93.521904 L85.422174,93.7880455 C85.5388811,93.6551593 85.6528606,93.5198185 85.7640251,93.3821109 L85.6494962,93.521904 C85.7266277,93.429083 85.8024621,93.3351461 85.876972,93.2401211 L85.7640251,93.3821109 C85.8305872,93.2996554 85.8961401,93.2163514 85.960665,93.1322175 L85.876972,93.2401211 C86.0568905,93.0106651 86.2290861,92.7748652 86.3931714,92.5331147 C86.4060109,92.5141977 86.4185988,92.4955443 86.4311384,92.4768557 L86.3931714,92.5331147 C86.4577586,92.437957 86.5210893,92.3418773 86.5831398,92.2448996 L86.4311384,92.4768557 C86.9755711,91.6654556 87.4290137,90.7878805 87.7768575,89.8587391 L87.7594993,89.9053558 C87.8504551,89.6652307 87.9343542,89.4216144 88.010941,89.1747632 C88.0200478,89.1449916 88.0292216,89.1150386 88.0382877,89.0850388 L88.010941,89.1747632 C88.0938511,88.9075307 88.1681914,88.6365071 88.2336372,88.3620178 C88.2412173,88.329927 88.2486173,88.2983542 88.2558994,88.2667364 L88.2336372,88.3620178 C88.2615015,88.2451513 88.2877534,88.1276565 88.3123679,88.0095587 L88.2558994,88.2667364 C88.2872708,88.1305268 88.3164541,87.9934807 88.3434101,87.8556374 L88.3123679,88.0095587 C88.3470078,87.8433607 88.3784048,87.6759683 88.4064894,87.5074515 C88.4074841,87.501315 88.4085898,87.494651 88.4096903,87.4879852 L88.4064894,87.5074515 C88.4267235,87.3860397 88.4452382,87.2640443 88.4620072,87.1414913 L88.4096903,87.4879852 C88.4340745,87.3402875 88.4559133,87.1917313 88.4751602,87.0423631 L88.4620072,87.1414913 C88.4804993,87.0063458 88.4968687,86.8705223 88.5110803,86.734056 L88.4751602,87.0423631 C88.4929604,86.9042214 88.5085437,86.7653853 88.5218731,86.6258915 L88.5515811,86.2594741 C88.5591043,86.1465695 88.5651541,86.0332611 88.5697111,85.9195681 C88.5721538,85.858619 88.5741682,85.7975511 88.5757504,85.7363756 L88.5697111,85.9195681 C88.5766003,85.7476911 88.5800781,85.5749353 88.5800781,85.4013672 C88.5800781,80.4071747 85.7007225,76.0854918 81.5115182,74.0058254 L81.5116095,74.0072819 C81.1320531,73.8184784 80.7417521,73.648182 80.341872,73.4975317 C80.3326426,73.4935022 80.3236116,73.4901165 80.3145757,73.4867407 L80.341872,73.4975317 C80.20393,73.4455637 80.0648481,73.3959334 79.9246742,73.3486877 L80.3145757,73.4867407 C80.1734557,73.4340187 80.031148,73.3837321 79.8877035,73.335932 L79.9246742,73.3486877 C79.7988068,73.306264 79.6720588,73.265763 79.544465,73.2272185 L79.8877035,73.335932 C79.7504306,73.2901885 79.6121167,73.2467221 79.4728066,73.2055777 L79.544465,73.2272185 C79.3907189,73.1807737 79.2357446,73.1371697 79.0796028,73.0964656 L79.4728066,73.2055777 C79.3363061,73.1652631 79.1988492,73.1271777 79.0604781,73.0913638 L79.0796028,73.0964656 C78.9394445,73.0599282 78.7983454,73.0257274 78.6563494,72.9939061 L79.0604781,73.0913638 C78.9204464,73.05512 78.7794785,73.0212026 78.6376179,72.9896551 L78.6563494,72.9939061 C78.5119854,72.9615542 78.3666943,72.9316617 78.2205221,72.9042737 L78.6376179,72.9896551 C78.4889609,72.9565962 78.3393236,72.9261397 78.1887565,72.8983361 L78.2205221,72.9042737 C78.0866343,72.8791874 77.9520073,72.8562024 77.8166764,72.8353531 L78.1887565,72.8983361 C78.0418173,72.8712023 77.8939925,72.8465951 77.7453288,72.824561 L77.8166764,72.8353531 C77.6688314,72.812576 77.5201464,72.7923479 77.3706675,72.774714 L77.7453288,72.824561 C77.5820717,72.800364 77.4178029,72.7792702 77.2525844,72.7613414 L77.3706675,72.774714 C77.2225316,72.7572385 77.073616,72.7423108 76.9239657,72.7299748 L77.2525844,72.7613414 C76.7969258,72.7118955 76.3340431,72.6865234 75.8652344,72.6865234 C75.4793387,72.6865234 75.0974582,72.7037146 74.720317,72.7373728 L74.290359,72.7830974 C74.2753197,72.7849553 74.2602884,72.7868394 74.2452654,72.7887498 C74.1125825,72.8057584 73.9803832,72.8246847 73.8488555,72.8456296 L74.2452654,72.7887498 C74.1038948,72.8067267 73.9632489,72.827025 73.823367,72.8496053 L73.8488555,72.8456296 C73.7021037,72.8689988 73.5561879,72.894881 73.4111538,72.9232305 L73.823367,72.8496053 C73.6641692,72.8753037 73.5059611,72.9039578 73.3488007,72.9355096 L73.4111538,72.9232305 C73.1194552,72.9802482 72.8313227,73.0472466 72.5471271,73.1238546 C72.5274674,73.129125 72.5077863,73.1344822 72.4881244,73.1398854 L72.5471271,73.1238546 C72.4145864,73.1595824 72.2829019,73.1974003 72.1521114,73.2372706 L72.4881244,73.1398854 C72.3511369,73.1775301 72.2150744,73.217409 72.0799785,73.2594804 L72.1521114,73.2372706 C72.0051134,73.2820817 71.8592447,73.3294854 71.7145586,73.3794283 L72.0799785,73.2594804 C71.934109,73.304907 71.7893665,73.3528898 71.6458034,73.4033764 L71.7145586,73.3794283 C71.5878316,73.4231721 71.462012,73.4688638 71.3371354,73.5164676 L71.6458034,73.4033764 C71.509732,73.4512284 71.37472,73.5013297 71.2408122,73.5536357 L71.3371354,73.5164676 C71.1890207,73.5729299 71.0422329,73.6320822 70.8968317,73.6938644 L71.2408122,73.5536357 C71.102596,73.6076246 70.9655561,73.6639623 70.8297416,73.7225998 L70.8968317,73.6938644 C70.778243,73.7442538 70.6605768,73.7963926 70.5438655,73.8502484 L70.8297416,73.7225998 C70.7041428,73.7768267 70.579592,73.8330204 70.4561279,73.8911421 L70.5438655,73.8502484 C70.3940027,73.9194017 70.2457144,73.9913859 70.0990692,74.0661322 L69.86828,74.1867701 C66.0400453,76.2381902 63.3841541,80.1925228 63.1650529,84.7853215 Z M80.8864102,12.0795616 L70.7145352,12.0795616 L70.7145352,25.2182335 C70.7145352,35.2020845 71.8033046,49.0782862 73.9808434,66.8468384 C74.6009612,66.7847531 75.2293814,66.7529297 75.8652344,66.7529297 C76.4574993,66.7529297 77.0433156,66.7805396 77.6214663,66.8345426 C79.7735928,49.2722362 80.8617209,35.513223 80.8859948,25.5574884 L80.8864102,12.0795616 Z" id="Combined-Shape"></path>
                        <path d="M76.2982487,78.6651741 C76.3097589,78.6758622 76.3208694,78.6869727 76.3315575,78.6984829 L76.5625137,78.947205 C76.9997048,79.4180261 77.2426758,80.0367606 77.2426758,80.6792624 L77.242197,84.0236406 L80.5873389,84.0239255 C81.2298407,84.0239255 81.8485751,84.2668965 82.3193962,84.7040875 L82.5681183,84.9350438 C82.8256615,85.174191 82.8405744,85.5768381 82.6014271,85.8343812 L82.5681183,85.86769 L82.5681183,85.86769 L82.3193962,86.0986463 C81.8485751,86.5358373 81.2298407,86.7788083 80.5873389,86.7788083 L77.242197,86.7786406 L77.2426758,90.1234714 C77.2426758,90.7659732 76.9997048,91.3847076 76.5625137,91.8555288 L76.3315575,92.1042509 C76.0924103,92.361794 75.6897632,92.3767069 75.43222,92.1375597 C75.4207098,92.1268716 75.4095993,92.1157611 75.3989112,92.1042509 L75.167955,91.8555288 C74.7307639,91.3847076 74.487793,90.7659732 74.487793,90.1234714 L74.487197,86.7786406 L71.1431298,86.7788083 C70.5006281,86.7788083 69.8818936,86.5358373 69.4110725,86.0986463 L69.1623504,85.86769 C68.9048072,85.6285428 68.8898944,85.2258957 69.1290416,84.9683526 C69.1397296,84.9568423 69.1508402,84.9457318 69.1623504,84.9350438 L69.4110725,84.7040875 C69.8818936,84.2668965 70.5006281,84.0239255 71.1431298,84.0239255 L74.487197,84.0236406 L74.487793,80.6792624 C74.487793,80.0367606 74.7307639,79.4180261 75.167955,78.947205 L75.3989112,78.6984829 C75.6380584,78.4409397 76.0407055,78.4260269 76.2982487,78.6651741 Z" id="Combined-Shape" opacity="0.3" transform="translate(75.865234, 85.401367) rotate(45.000000) translate(-75.865234, -85.401367) "></path>
                    </g>
                </g>
            </g>
            <g id="Getthebetaon" fill-rule="nonzero" fill="#000000">
                <use xlink:href="#path-2"></use>
                <use xlink:href="#path-2"></use>
            </g>
            <g id="TestFlight" fill-rule="nonzero" fill="#000000">
                <use xlink:href="#path-3"></use>
                <use xlink:href="#path-3"></use>
            </g>
        </g>
    </g>
</svg>