<?xml version="1.0" encoding="UTF-8"?>
<svg id="Layer_2" xmlns="http://www.w3.org/2000/svg" viewBox="0 0 174 43">
  <defs>
    <style>
      .cls-1 {
        fill: none;
      }

      .cls-2 {
        fill: #fff;
      }
    </style>
  </defs>
  <g id="Layer_1-2" data-name="Layer_1">
    <g>
      <g id="webOS_OSE_logo_gray">
        <g id="Group_1">
          <path id="Path_1" class="cls-2" d="M142.85,28.88c0,8.85,6.09,13.28,14.95,13.28,9.96,0,14.95-3.87,14.95-10.51h0c0-7.63-4.99-9.23-14.95-12.06-6.88-1.81-10.86-3.61-10.86-7.95h0c0-5.08,3.81-7.43,10.8-7.43h0c6.57,0,10.91,2.3,10.91,9.18h2.99c0-8.85-5.54-12.17-13.84-12.17-8.86,0-13.84,3.32-13.84,9.96s4.98,8.97,13.84,11.49c7.35,2.03,11.96,2.94,11.96,8.98,0,5.06-4.37,7.53-11.99,7.53h0c-6.82,0-11.91-3.06-11.91-10.29h-2.99Z"/>
          <path id="Path_2" class="cls-2" d="M120.15,1.22c-11.31,0-20.47,9.18-20.46,20.49,0,11.31,9.18,20.47,20.49,20.46,11.3,0,20.46-9.17,20.46-20.47,0-11.31-9.17-20.48-20.48-20.47,0,0,0,0,0,0M120.15,39.18c-9.66,0-17.49-7.84-17.48-17.49,0-9.66,7.84-17.49,17.49-17.48,9.66,0,17.48,7.83,17.48,17.49,0,9.66-7.83,17.49-17.49,17.49"/>
          <path id="Path_3" class="cls-2" d="M84.16,12.28c-4.18,0-7.24,1.59-9.19,4.5V1.77h-2.99v25.45h2.99c0-7.52,3.34-11.96,9.19-11.96s9.19,4.43,9.19,11.96-3.34,11.96-9.19,11.96c-4.41,0-7.39-2.52-8.59-6.98h-3.1c1.34,6.35,5.43,9.96,11.7,9.96,7.75,0,12.18-5.53,12.18-14.94s-4.43-14.94-12.18-14.94"/>
          <path id="Path_4" class="cls-2" d="M55.38,39.15c-5.85,0-9.19-4.42-9.19-11.92h21.37c0-9.41-4.43-14.94-12.18-14.94s-12.18,5.53-12.18,14.94,4.43,14.94,12.18,14.94c6.26,0,10.35-3.61,11.7-9.96h-3.11c-1.2,4.44-4.19,6.94-8.59,6.94M55.37,15.3c5.02,0,8.2,3.26,8.99,8.94h-17.98c.79-5.68,3.97-8.94,8.99-8.94"/>
          <path id="Path_5" class="cls-2" d="M14.44,41.61l7.61-24.13,7.61,24.13h3.36l9.07-28.78h-3.13l-7.62,24.17-7.62-24.17h-3.34l-7.62,24.17L5.13,12.83H2l9.07,28.78h3.36Z"/>
        </g>
      </g>
      <rect id="Rectangle_1" class="cls-1" width="174" height="43"/>
    </g>
  </g>
</svg>