<?xml version="1.0" encoding="UTF-8"?>
<!--Generator: Apple Native CoreSVG 149-->
<!DOCTYPE svg
PUBLIC "-//W3C//DTD SVG 1.1//EN"
       "http://www.w3.org/Graphics/SVG/1.1/DTD/svg11.dtd">
<svg version="1.1" xmlns="http://www.w3.org/2000/svg" xmlns:xlink="http://www.w3.org/1999/xlink" width="3300" height="2200">
 <!--glyph: "", point size: 100.0, font version: "17.0d9e1", template writer version: "59"-->
 <g id="Notes">
  <rect height="2200" id="artboard" style="fill:white;opacity:1" width="3300" x="0" y="0"/>
  <line style="fill:none;stroke:black;opacity:1;stroke-width:0.5;" x1="263" x2="3036" y1="292" y2="292"/>
  <text style="stroke:none;fill:black;font-family:sans-serif;font-size:13;font-weight:bold;" transform="matrix(1 0 0 1 263 322)">Weight/Scale Variations</text>
  <text style="stroke:none;fill:black;font-family:sans-serif;font-size:13;text-anchor:middle;" transform="matrix(1 0 0 1 559.711 322)">Ultralight</text>
  <text style="stroke:none;fill:black;font-family:sans-serif;font-size:13;text-anchor:middle;" transform="matrix(1 0 0 1 856.422 322)">Thin</text>
  <text style="stroke:none;fill:black;font-family:sans-serif;font-size:13;text-anchor:middle;" transform="matrix(1 0 0 1 1153.13 322)">Light</text>
  <text style="stroke:none;fill:black;font-family:sans-serif;font-size:13;text-anchor:middle;" transform="matrix(1 0 0 1 1449.84 322)">Regular</text>
  <text style="stroke:none;fill:black;font-family:sans-serif;font-size:13;text-anchor:middle;" transform="matrix(1 0 0 1 1746.56 322)">Medium</text>
  <text style="stroke:none;fill:black;font-family:sans-serif;font-size:13;text-anchor:middle;" transform="matrix(1 0 0 1 2043.27 322)">Semibold</text>
  <text style="stroke:none;fill:black;font-family:sans-serif;font-size:13;text-anchor:middle;" transform="matrix(1 0 0 1 2339.98 322)">Bold</text>
  <text style="stroke:none;fill:black;font-family:sans-serif;font-size:13;text-anchor:middle;" transform="matrix(1 0 0 1 2636.69 322)">Heavy</text>
  <text style="stroke:none;fill:black;font-family:sans-serif;font-size:13;text-anchor:middle;" transform="matrix(1 0 0 1 2933.4 322)">Black</text>
  <line style="fill:none;stroke:black;opacity:1;stroke-width:0.5;" x1="263" x2="3036" y1="1903" y2="1903"/>
  <g transform="matrix(1 0 0 1 263 1933)">
   <path d="M9.24805 0.830078Q10.8691 0.830078 12.2949 0.214844Q13.7207-0.400391 14.8096-1.49414Q15.8984-2.58789 16.5186-4.01367Q17.1387-5.43945 17.1387-7.05078Q17.1387-8.66211 16.5186-10.0879Q15.8984-11.5137 14.8047-12.6074Q13.7109-13.7012 12.2852-14.3164Q10.8594-14.9316 9.23828-14.9316Q7.62695-14.9316 6.20117-14.3164Q4.77539-13.7012 3.69141-12.6074Q2.60742-11.5137 1.9873-10.0879Q1.36719-8.66211 1.36719-7.05078Q1.36719-5.43945 1.9873-4.01367Q2.60742-2.58789 3.69629-1.49414Q4.78516-0.400391 6.21094 0.214844Q7.63672 0.830078 9.24805 0.830078ZM9.24805-0.654297Q7.91992-0.654297 6.7627-1.14746Q5.60547-1.64062 4.73145-2.51953Q3.85742-3.39844 3.36426-4.56055Q2.87109-5.72266 2.87109-7.05078Q2.87109-8.37891 3.35938-9.54102Q3.84766-10.7031 4.72168-11.582Q5.5957-12.4609 6.75293-12.9541Q7.91016-13.4473 9.23828-13.4473Q10.5762-13.4473 11.7334-12.9541Q12.8906-12.4609 13.7695-11.582Q14.6484-10.7031 15.1465-9.54102Q15.6445-8.37891 15.6445-7.05078Q15.6445-5.72266 15.1514-4.56055Q14.6582-3.39844 13.7842-2.51953Q12.9102-1.64062 11.748-1.14746Q10.5859-0.654297 9.24805-0.654297ZM5.83984-7.04102Q5.83984-6.71875 6.04492-6.51855Q6.25-6.31836 6.5918-6.31836L8.50586-6.31836L8.50586-4.39453Q8.50586-4.0625 8.70605-3.85742Q8.90625-3.65234 9.22852-3.65234Q9.56055-3.65234 9.76562-3.85742Q9.9707-4.0625 9.9707-4.39453L9.9707-6.31836L11.8945-6.31836Q12.2266-6.31836 12.4316-6.51855Q12.6367-6.71875 12.6367-7.04102Q12.6367-7.37305 12.4316-7.57812Q12.2266-7.7832 11.8945-7.7832L9.9707-7.7832L9.9707-9.69727Q9.9707-10.0391 9.76562-10.2441Q9.56055-10.4492 9.22852-10.4492Q8.90625-10.4492 8.70605-10.2441Q8.50586-10.0391 8.50586-9.69727L8.50586-7.7832L6.5918-7.7832Q6.25-7.7832 6.04492-7.57812Q5.83984-7.37305 5.83984-7.04102Z"/>
  </g>
  <g transform="matrix(1 0 0 1 281.867 1933)">
   <path d="M11.709 2.91016Q13.75 2.91016 15.5518 2.12891Q17.3535 1.34766 18.7305-0.0292969Q20.1074-1.40625 20.8887-3.20801Q21.6699-5.00977 21.6699-7.05078Q21.6699-9.0918 20.8887-10.8936Q20.1074-12.6953 18.7305-14.0723Q17.3535-15.4492 15.5469-16.2305Q13.7402-17.0117 11.6992-17.0117Q9.6582-17.0117 7.85645-16.2305Q6.05469-15.4492 4.68262-14.0723Q3.31055-12.6953 2.5293-10.8936Q1.74805-9.0918 1.74805-7.05078Q1.74805-5.00977 2.5293-3.20801Q3.31055-1.40625 4.6875-0.0292969Q6.06445 1.34766 7.86621 2.12891Q9.66797 2.91016 11.709 2.91016ZM11.709 1.25Q9.98047 1.25 8.47656 0.605469Q6.97266-0.0390625 5.83496-1.17676Q4.69727-2.31445 4.05762-3.81836Q3.41797-5.32227 3.41797-7.05078Q3.41797-8.7793 4.05762-10.2832Q4.69727-11.7871 5.83008-12.9297Q6.96289-14.0723 8.4668-14.7119Q9.9707-15.3516 11.6992-15.3516Q13.4277-15.3516 14.9316-14.7119Q16.4355-14.0723 17.5781-12.9297Q18.7207-11.7871 19.3652-10.2832Q20.0098-8.7793 20.0098-7.05078Q20.0098-5.32227 19.3701-3.81836Q18.7305-2.31445 17.5928-1.17676Q16.4551-0.0390625 14.9463 0.605469Q13.4375 1.25 11.709 1.25ZM7.39258-7.04102Q7.39258-6.68945 7.62695-6.46484Q7.86133-6.24023 8.23242-6.24023L10.8789-6.24023L10.8789-3.57422Q10.8789-3.21289 11.1035-2.9834Q11.3281-2.75391 11.6797-2.75391Q12.0508-2.75391 12.2852-2.9834Q12.5195-3.21289 12.5195-3.57422L12.5195-6.24023L15.1758-6.24023Q15.5371-6.24023 15.7715-6.46484Q16.0059-6.68945 16.0059-7.04102Q16.0059-7.41211 15.7715-7.6416Q15.5371-7.87109 15.1758-7.87109L12.5195-7.87109L12.5195-10.5176Q12.5195-10.8984 12.2852-11.1279Q12.0508-11.3574 11.6797-11.3574Q11.3281-11.3574 11.1035-11.1279Q10.8789-10.8984 10.8789-10.5176L10.8789-7.87109L8.23242-7.87109Q7.85156-7.87109 7.62207-7.6416Q7.39258-7.41211 7.39258-7.04102Z"/>
  </g>
  <g transform="matrix(1 0 0 1 305.646 1933)">
   <path d="M14.9707 5.66406Q17.0605 5.66406 18.96 5.01465Q20.8594 4.36523 22.4512 3.19336Q24.043 2.02148 25.2197 0.429688Q26.3965-1.16211 27.0459-3.06641Q27.6953-4.9707 27.6953-7.05078Q27.6953-9.14062 27.0459-11.04Q26.3965-12.9395 25.2197-14.5312Q24.043-16.123 22.4512-17.2998Q20.8594-18.4766 18.9551-19.126Q17.0508-19.7754 14.9609-19.7754Q12.8711-19.7754 10.9717-19.126Q9.07227-18.4766 7.48535-17.2998Q5.89844-16.123 4.72168-14.5312Q3.54492-12.9395 2.90039-11.04Q2.25586-9.14062 2.25586-7.05078Q2.25586-4.9707 2.90527-3.06641Q3.55469-1.16211 4.72656 0.429688Q5.89844 2.02148 7.49023 3.19336Q9.08203 4.36523 10.9814 5.01465Q12.8809 5.66406 14.9707 5.66406ZM14.9707 3.84766Q13.1641 3.84766 11.5283 3.2959Q9.89258 2.74414 8.53516 1.74805Q7.17773 0.751953 6.17676-0.610352Q5.17578-1.97266 4.62891-3.6084Q4.08203-5.24414 4.08203-7.05078Q4.08203-8.86719 4.62891-10.5029Q5.17578-12.1387 6.17188-13.501Q7.16797-14.8633 8.52539-15.8594Q9.88281-16.8555 11.5186-17.4023Q13.1543-17.9492 14.9609-17.9492Q16.7773-17.9492 18.4131-17.4023Q20.0488-16.8555 21.4111-15.8594Q22.7734-14.8633 23.7695-13.501Q24.7656-12.1387 25.3174-10.5029Q25.8691-8.86719 25.8691-7.05078Q25.8789-5.24414 25.332-3.6084Q24.7852-1.97266 23.7842-0.610352Q22.7832 0.751953 21.4209 1.74805Q20.0586 2.74414 18.4229 3.2959Q16.7871 3.84766 14.9707 3.84766ZM9.45312-7.04102Q9.45312-6.66016 9.71191-6.41113Q9.9707-6.16211 10.3711-6.16211L14.0625-6.16211L14.0625-2.46094Q14.0625-2.06055 14.3115-1.80664Q14.5605-1.55273 14.9414-1.55273Q15.3516-1.55273 15.6055-1.80664Q15.8594-2.06055 15.8594-2.46094L15.8594-6.16211L19.5605-6.16211Q19.9609-6.16211 20.2148-6.41113Q20.4688-6.66016 20.4688-7.04102Q20.4688-7.45117 20.2148-7.70508Q19.9609-7.95898 19.5605-7.95898L15.8594-7.95898L15.8594-11.6504Q15.8594-12.0605 15.6055-12.3145Q15.3516-12.5684 14.9414-12.5684Q14.5605-12.5684 14.3115-12.3096Q14.0625-12.0508 14.0625-11.6504L14.0625-7.95898L10.3711-7.95898Q9.96094-7.95898 9.70703-7.70508Q9.45312-7.45117 9.45312-7.04102Z"/>
  </g>
  <text style="stroke:none;fill:black;font-family:sans-serif;font-size:13;font-weight:bold;" transform="matrix(1 0 0 1 263 1953)">Design Variations</text>
  <text style="stroke:none;fill:black;font-family:sans-serif;font-size:13;" transform="matrix(1 0 0 1 263 1971)">Symbols are supported in up to nine weights and three scales.</text>
  <text style="stroke:none;fill:black;font-family:sans-serif;font-size:13;" transform="matrix(1 0 0 1 263 1989)">For optimal layout with text and other symbols, vertically align</text>
  <text style="stroke:none;fill:black;font-family:sans-serif;font-size:13;" transform="matrix(1 0 0 1 263 2007)">symbols with the adjacent text.</text>
  <line style="fill:none;stroke:#00AEEF;stroke-width:0.5;opacity:1.0;" x1="776" x2="776" y1="1919" y2="1933"/>
  <g transform="matrix(1 0 0 1 776 1933)">
   <path d="M3.31055 0.15625Q3.70117 0.15625 3.91602-0.00976562Q4.13086-0.175781 4.26758-0.585938L5.52734-4.0332L11.2891-4.0332L12.5488-0.585938Q12.6855-0.175781 12.9004-0.00976562Q13.1152 0.15625 13.4961 0.15625Q13.8867 0.15625 14.1162-0.0585938Q14.3457-0.273438 14.3457-0.644531Q14.3457-0.869141 14.2383-1.17188L9.6582-13.3691Q9.48242-13.8184 9.17969-14.043Q8.87695-14.2676 8.4082-14.2676Q7.5-14.2676 7.17773-13.3789L2.59766-1.16211Q2.49023-0.859375 2.49023-0.634766Q2.49023-0.263672 2.70996-0.0537109Q2.92969 0.15625 3.31055 0.15625ZM6.00586-5.51758L8.37891-12.0898L8.42773-12.0898L10.8008-5.51758Z"/>
  </g>
  <line style="fill:none;stroke:#00AEEF;stroke-width:0.5;opacity:1.0;" x1="793.197" x2="793.197" y1="1919" y2="1933"/>
  <text style="stroke:none;fill:black;font-family:sans-serif;font-size:13;font-weight:bold;" transform="matrix(1 0 0 1 776 1953)">Margins</text>
  <text style="stroke:none;fill:black;font-family:sans-serif;font-size:13;" transform="matrix(1 0 0 1 776 1971)">Leading and trailing margins on the left and right side of each symbol</text>
  <text style="stroke:none;fill:black;font-family:sans-serif;font-size:13;" transform="matrix(1 0 0 1 776 1989)">can be adjusted by modifying the x-location of the margin guidelines.</text>
  <text style="stroke:none;fill:black;font-family:sans-serif;font-size:13;" transform="matrix(1 0 0 1 776 2007)">Modifications are automatically applied proportionally to all</text>
  <text style="stroke:none;fill:black;font-family:sans-serif;font-size:13;" transform="matrix(1 0 0 1 776 2025)">scales and weights.</text>
  <g transform="matrix(1 0 0 1 1289 1933)">
   <path d="M2.8418 1.86523L4.54102 3.57422Q5.18555 4.22852 5.90332 4.17969Q6.62109 4.13086 7.31445 3.35938L18.0078-8.42773L17.041-9.4043L6.42578 2.27539Q6.16211 2.57812 5.89355 2.61719Q5.625 2.65625 5.27344 2.30469L4.10156 1.14258Q3.75 0.791016 3.79395 0.522461Q3.83789 0.253906 4.14062-0.0195312L15.6152-10.8203L14.6387-11.7871L3.04688-0.898438Q2.30469-0.214844 2.25098 0.498047Q2.19727 1.21094 2.8418 1.86523ZM9.25781-16.3281Q8.94531-16.0254 8.90625-15.6348Q8.86719-15.2441 9.04297-14.9512Q9.21875-14.6777 9.55566-14.541Q9.89258-14.4043 10.3809-14.5215Q11.4746-14.7754 12.5977-14.7314Q13.7207-14.6875 14.7949-13.9844L14.209-12.5293Q13.9551-11.9043 14.0674-11.4404Q14.1797-10.9766 14.5801-10.5664L16.875-8.25195Q17.2363-7.88086 17.5781-7.82227Q17.9199-7.76367 18.3398-7.8418L19.4043-8.03711L20.0684-7.36328L20.0293-6.80664Q20-6.43555 20.1221-6.12305Q20.2441-5.81055 20.6055-5.44922L21.3672-4.70703Q21.7285-4.3457 22.1533-4.33105Q22.5781-4.31641 22.9297-4.66797L25.8398-7.58789Q26.1914-7.93945 26.1816-8.35449Q26.1719-8.76953 25.8105-9.13086L25.0391-9.89258Q24.6875-10.2539 24.3799-10.3857Q24.0723-10.5176 23.7109-10.4883L23.1348-10.4395L22.4902-11.0742L22.7344-12.1973Q22.832-12.6172 22.6953-12.9834Q22.5586-13.3496 22.1191-13.7891L19.9219-15.9766Q18.6719-17.2168 17.2607-17.8369Q15.8496-18.457 14.4189-18.4814Q12.9883-18.5059 11.665-17.959Q10.3418-17.4121 9.25781-16.3281ZM10.752-15.957Q11.6602-16.6211 12.7002-16.9043Q13.7402-17.1875 14.8047-17.085Q15.8691-16.9824 16.8701-16.5137Q17.8711-16.0449 18.7012-15.2051L21.1328-12.793Q21.3086-12.6172 21.3525-12.4512Q21.3965-12.2852 21.3379-12.0312L21.0156-10.5469L22.5195-9.0625L23.5059-9.12109Q23.6914-9.13086 23.7891-9.09668Q23.8867-9.0625 24.0332-8.91602L24.6094-8.33984L22.168-5.89844L21.5918-6.47461Q21.4453-6.62109 21.4062-6.71875Q21.3672-6.81641 21.377-7.01172L21.4453-7.98828L19.9512-9.47266L18.4277-9.21875Q18.1836-9.16992 18.042-9.2041Q17.9004-9.23828 17.7148-9.41406L15.7129-11.416Q15.5176-11.5918 15.4932-11.7529Q15.4688-11.9141 15.5859-12.1875L16.4648-14.2773Q15.293-15.3711 13.8281-15.791Q12.3633-16.2109 10.8398-15.7617Q10.7227-15.7324 10.6885-15.8057Q10.6543-15.8789 10.752-15.957Z"/>
  </g>
  <text style="stroke:none;fill:black;font-family:sans-serif;font-size:13;font-weight:bold;" transform="matrix(1 0 0 1 1289 1953)">Exporting</text>
  <text style="stroke:none;fill:black;font-family:sans-serif;font-size:13;" transform="matrix(1 0 0 1 1289 1971)">Symbols should be outlined when exporting to ensure the</text>
  <text style="stroke:none;fill:black;font-family:sans-serif;font-size:13;" transform="matrix(1 0 0 1 1289 1989)">design is preserved when submitting to Xcode.</text>
  <text id="template-version" style="stroke:none;fill:black;font-family:sans-serif;font-size:13;text-anchor:end;" transform="matrix(1 0 0 1 3036 1933)">Template v.3.0</text>
  <text style="stroke:none;fill:black;font-family:sans-serif;font-size:13;text-anchor:end;" transform="matrix(1 0 0 1 3036 1951)">Requires Xcode 13 or greater</text>
  <text id="descriptive-name" style="stroke:none;fill:black;font-family:sans-serif;font-size:13;text-anchor:end;" transform="matrix(1 0 0 1 3036 1969)">Generated from logo.github</text>
  <text style="stroke:none;fill:black;font-family:sans-serif;font-size:13;text-anchor:end;" transform="matrix(1 0 0 1 3036 1987)">Typeset at 100 points</text>
  <text style="stroke:none;fill:black;font-family:sans-serif;font-size:13;" transform="matrix(1 0 0 1 263 726)">Small</text>
  <text style="stroke:none;fill:black;font-family:sans-serif;font-size:13;" transform="matrix(1 0 0 1 263 1156)">Medium</text>
  <text style="stroke:none;fill:black;font-family:sans-serif;font-size:13;" transform="matrix(1 0 0 1 263 1586)">Large</text>
 </g>
 <g id="Guides">
  <g id="H-reference" style="fill:#27AAE1;stroke:none;" transform="matrix(1 0 0 1 339 696)">
   <path d="M0.976562 0L3.66211 0L29.3457-67.1387L30.0293-67.1387L30.0293-70.459L28.125-70.459ZM11.6699-24.4629L46.9727-24.4629L46.2402-26.709L12.4512-26.709ZM55.127 0L57.7637 0L30.6152-70.459L29.4434-70.459L29.4434-67.1387Z"/>
  </g>
  <line id="Baseline-S" style="fill:none;stroke:#27AAE1;opacity:1;stroke-width:0.5;" x1="263" x2="3036" y1="696" y2="696"/>
  <line id="Capline-S" style="fill:none;stroke:#27AAE1;opacity:1;stroke-width:0.5;" x1="263" x2="3036" y1="625.541" y2="625.541"/>
  <g id="H-reference" style="fill:#27AAE1;stroke:none;" transform="matrix(1 0 0 1 339 1126)">
   <path d="M0.976562 0L3.66211 0L29.3457-67.1387L30.0293-67.1387L30.0293-70.459L28.125-70.459ZM11.6699-24.4629L46.9727-24.4629L46.2402-26.709L12.4512-26.709ZM55.127 0L57.7637 0L30.6152-70.459L29.4434-70.459L29.4434-67.1387Z"/>
  </g>
  <line id="Baseline-M" style="fill:none;stroke:#27AAE1;opacity:1;stroke-width:0.5;" x1="263" x2="3036" y1="1126" y2="1126"/>
  <line id="Capline-M" style="fill:none;stroke:#27AAE1;opacity:1;stroke-width:0.5;" x1="263" x2="3036" y1="1055.54" y2="1055.54"/>
  <g id="H-reference" style="fill:#27AAE1;stroke:none;" transform="matrix(1 0 0 1 339 1556)">
   <path d="M0.976562 0L3.66211 0L29.3457-67.1387L30.0293-67.1387L30.0293-70.459L28.125-70.459ZM11.6699-24.4629L46.9727-24.4629L46.2402-26.709L12.4512-26.709ZM55.127 0L57.7637 0L30.6152-70.459L29.4434-70.459L29.4434-67.1387Z"/>
  </g>
  <line id="Baseline-L" style="fill:none;stroke:#27AAE1;opacity:1;stroke-width:0.5;" x1="263" x2="3036" y1="1556" y2="1556"/>
  <line id="Capline-L" style="fill:none;stroke:#27AAE1;opacity:1;stroke-width:0.5;" x1="263" x2="3036" y1="1485.54" y2="1485.54"/>
  <line id="left-margin-Regular-M" style="fill:none;stroke:#00AEEF;stroke-width:0.5;opacity:1.0;" x1="1391.01" x2="1391.01" y1="1030.73" y2="1150.14"/>
  <line id="right-margin-Regular-M" style="fill:none;stroke:#00AEEF;stroke-width:0.5;opacity:1.0;" x1="1508.68" x2="1508.68" y1="1030.73" y2="1150.14"/>
 </g>
 <g id="Symbols">
  <g id="Black-L" transform="matrix(1 0 0 1 2853.82 1556)">
   <path d="M79.5571-102.716C41.8025-102.716 11.194-72.1074 11.194-34.3528C11.194-4.23839 30.7513 21.4795 57.9064 30.4373C61.3147 31.0934 62.6297 28.9576 62.6297 27.191C62.6297 25.5466 62.6297 21.3148 62.4676 15.6033C43.4469 19.7128 39.4993 6.48076 39.4993 6.48076C36.4177-1.36922 31.8591-3.4626 31.8591-3.4626C25.6535-7.69445 32.3532-7.69182 32.3532-7.69182C39.215-7.19772 42.7907-0.66534 42.7907-0.66534C48.8316 9.77212 58.7325 6.81016 62.635 5.04617C63.2911 0.649626 65.0578-2.42932 67.0289-4.07369C51.8681-5.83767 35.9289-11.7139 35.9289-37.8062C35.9289-45.2817 38.5588-51.3226 42.9554-56.1682C42.2966-57.9322 39.8764-64.7966 43.6142-74.2458C43.6142-74.2458 49.3257-76.0549 62.3507-67.2618C67.7328-68.7415 73.609-69.5199 79.4427-69.5623C85.2739-69.5623 91.1501-68.7415 96.5348-67.2618C109.56-76.0549 115.271-74.2458 115.271-74.2458C119.009-64.7966 116.586-57.9322 115.93-56.1682C120.327-51.4422 122.957-45.2817 122.957-37.8062C122.957-11.5943 107.017-5.76314 91.7344-4.11877C94.1996-2.02539 96.2956 2.20646 96.2956 8.57414C96.2956 17.694 96.176 25.0499 96.176 27.308C96.176 29.117 97.4485 31.2104 100.899 30.5542C128.413 21.3148 147.971-4.24102 147.971-34.3554C147.92-72.11 117.312-102.716 79.5571-102.716Z"/>
  </g>
  <g id="Heavy-L" transform="matrix(1 0 0 1 2558.04 1556)">
   <path d="M78.6464-101.689C41.3307-101.689 11.0657-71.4242 11.0657-34.1084C11.0657-4.33754 30.4128 21.0845 57.2439 29.9469C60.6045 30.5934 61.9098 28.477 61.9098 26.7386C61.9098 25.104 61.9098 20.9198 61.7574 15.2657C42.9653 19.3461 39.0373 6.23855 39.0373 6.23855C35.9936-1.54429 31.4924-3.59972 31.4924-3.59972C25.3442-7.78388 31.9865-7.77152 31.9865-7.77152C38.7812-7.27742 42.3189-0.812179 42.3189-0.812179C48.3024 9.52019 58.0797 6.56795 61.9345 4.84193C62.5809 0.49306 64.3193-2.53821 66.271-4.17284C51.2727-5.89887 35.5242-11.7177 35.5242-37.5424C35.5242-44.9226 38.1347-50.9061 42.4836-55.6757C41.8248-57.4017 39.4523-64.2087 43.1424-73.5529C43.1424-73.5529 48.7965-75.3523 61.6784-66.6545C67.0031-68.1245 72.8219-68.8747 78.5798-68.9356C84.3253-68.9356 90.1441-68.1245 95.4811-66.6545C108.363-75.3523 114.017-73.5529 114.017-73.5529C117.707-64.2087 115.322-57.4017 114.676-55.6757C119.025-50.9974 121.635-44.9226 121.635-37.5424C121.635-11.6263 105.887-5.8808 90.7848-4.24616C93.2306-2.19073 95.2983 1.99343 95.2983 8.29398C95.2983 17.3088 95.207 24.5975 95.207 26.8176C95.207 28.617 96.4512 30.6724 99.8729 30.0259C126.978 20.9198 146.325-4.34991 146.325-34.1208C146.227-71.4365 115.962-101.689 78.6464-101.689Z"/>
  </g>
  <g id="Bold-L" transform="matrix(1 0 0 1 2262.49 1556)">
   <path d="M77.5018-100.346C40.789-100.346 10.9967-70.5538 10.9967-33.841C10.9967-4.54278 30.0498 20.4717 56.4417 29.2039C59.7372 29.8336 61.0257 27.7507 61.0257 26.0439C61.0257 24.4261 61.0257 20.307 60.8901 14.7348C42.4069 18.7649 38.5123 5.83794 38.5123 5.83794C35.5171-1.84623 31.0978-3.8533 31.0978-3.8533C25.0315-7.97234 31.5919-7.94321 31.5919-7.94321C38.2878-7.44911 41.7772-1.08254 41.7772-1.08254C47.6788 9.1028 57.2943 6.16734 61.0839 4.48966C61.7136 0.205926 63.4204-2.76021 65.3385-4.37808C50.5692-6.05575 35.0812-11.7927 35.0812-37.2414C35.0812-44.4913 37.6582-50.3929 41.9419-55.0659C41.2831-56.7435 38.9758-63.4686 42.6007-72.6658C42.6007-72.6658 48.1729-74.4483 60.8594-65.8809C66.1022-67.334 71.8391-68.0526 77.5003-68.1284C83.1323-68.1284 88.8692-67.334 94.1411-65.8809C106.828-74.4483 112.4-72.6658 112.4-72.6658C116.025-63.4686 113.688-56.7435 113.059-55.0659C117.342-50.4527 119.919-44.4913 119.919-37.2414C119.919-11.7328 104.431-6.10083 89.5731-4.48297C91.9853-2.4759 94.0215 1.64314 94.0215 7.84501C94.0215 16.7128 93.9617 23.9028 93.9617 26.0746C93.9617 27.8572 95.1744 29.8642 98.5457 29.2346C125.117 20.307 144.17-4.57191 144.17-33.8701C144.007-70.583 114.215-100.346 77.5018-100.346Z"/>
  </g>
  <g id="Semibold-L" transform="matrix(1 0 0 1 1966.59 1556)">
   <path d="M76.7127-99.4203C40.4156-99.4203 10.9491-69.9538 10.9491-33.6566C10.9491-4.68426 29.7994 20.0493 55.8886 28.6917C59.1393 29.3098 60.4162 27.2501 60.4162 25.565C60.4162 23.9587 60.4162 19.8846 60.2922 14.3688C42.0219 18.3642 38.1505 5.56176 38.1505 5.56176C35.1885-2.05438 30.8257-4.02812 30.8257-4.02812C24.8158-8.10226 31.3198-8.06156 31.3198-8.06156C37.9477-7.56746 41.4038-1.26892 41.4038-1.26892C47.2489 8.81506 56.7528 5.89116 60.4976 4.24682C61.1157 0.00797801 62.8007-2.91326 64.6957-4.51956C50.0842-6.1639 34.7758-11.8443 34.7758-37.0339C34.7758-44.194 37.3296-50.0392 41.5685-54.6454C40.9097-56.2898 38.6472-62.9584 42.2273-72.0542C42.2273-72.0542 47.743-73.8252 60.2948-65.3475C65.4812-66.7891 71.1616-67.486 76.7561-67.5719C82.3099-67.5719 87.9903-66.7891 93.2173-65.3475C105.769-73.8252 111.285-72.0542 111.285-72.0542C114.865-62.9584 112.562-56.2898 111.944-54.6454C116.183-50.0772 118.736-44.194 118.736-37.0339C118.736-11.8063 103.428-6.25253 88.7377-4.64622C91.1268-2.67249 93.1413 1.40165 93.1413 7.5355C93.1413 16.3019 93.1032 23.4239 93.1032 25.5624C93.1032 27.3334 94.2942 29.3071 97.6308 28.689C123.834 19.8846 142.684-4.72496 142.684-33.6973C142.476-69.9945 113.01-99.4203 76.7127-99.4203Z"/>
  </g>
  <g id="Medium-L" transform="matrix(1 0 0 1 1670.48 1556)">
   <path d="M76.1144-98.7182C40.1324-98.7182 10.913-69.4988 10.913-33.5168C10.913-4.79154 29.6097 19.729 55.4693 28.3033C58.6859 28.9126 59.954 26.8704 59.954 25.2019C59.954 23.6044 59.954 19.5643 59.8388 14.0913C41.7299 18.0604 37.8761 5.35234 37.8761 5.35234C34.9394-2.21222 30.6194-4.16068 30.6194-4.16068C24.6524-8.20078 31.1135-8.15131 31.1135-8.15131C37.6898-7.65721 41.1206-1.41025 41.1206-1.41025C46.9229 8.59688 56.3423 5.68174 60.053 4.06268C60.6623-0.142115 62.3308-3.02931 64.2083-4.62684C49.7164-6.24591 34.5442-11.8835 34.5442-36.8766C34.5442-43.9686 37.0805-49.7709 41.2853-54.3267C40.6265-55.9457 38.3981-62.5716 41.9441-71.5905C41.9441-71.5905 47.417-73.3527 59.8667-64.9431C65.0103-66.3759 70.6479-67.0563 76.1918-67.15C81.6863-67.15 87.3239-66.3759 92.5169-64.9431C104.967-73.3527 110.44-71.5905 110.44-71.5905C113.986-62.5716 111.708-55.9457 111.098-54.3267C115.303-49.7925 117.839-43.9686 117.839-36.8766C117.839-11.862 102.667-6.36754 88.1043-4.77001C90.4759-2.82155 92.4738 1.21855 92.4738 7.30081C92.4738 15.9903 92.4523 23.0608 92.4523 25.174C92.4523 26.9362 93.6267 28.8847 96.937 28.2753C122.861 19.5643 141.558-4.84101 141.558-33.5663C141.316-69.5483 112.096-98.7182 76.1144-98.7182Z"/>
  </g>
  <g id="Regular-L" transform="matrix(1 0 0 1 1374.57 1556)">
   <path d="M75.334-97.8025C39.7631-97.8025 10.8659-68.9054 10.8659-33.3345C10.8659-4.93147 29.3621 19.3112 54.9223 27.7966C58.0945 28.3945 59.3512 26.3753 59.3512 24.7283C59.3512 23.1422 59.3512 19.1465 59.2474 13.7294C41.3492 17.6642 37.5182 5.0792 37.5182 5.0792C34.6145-2.41808 30.3503-4.33358 30.3503-4.33358C24.4391-8.32927 30.8444-8.26836 30.8444-8.26836C37.3535-7.77426 40.7513-1.59458 40.7513-1.59458C46.4978 8.31229 55.8067 5.4086 59.473 3.8225C60.0709-0.337888 61.7179-3.18068 63.5725-4.76677C49.2368-6.35287 34.2422-11.9347 34.2422-36.6714C34.2422-43.6746 36.7556-49.4211 40.916-53.9109C40.2572-55.4969 38.0732-62.0669 41.5748-70.9856C41.5748-70.9856 46.9919-72.7364 59.3083-64.4156C64.396-65.837 69.9778-66.4958 75.4558-66.5996C80.8729-66.5996 86.4547-65.837 91.6033-64.4156C103.92-72.7364 109.337-70.9856 109.337-70.9856C112.838-62.0669 110.594-55.4969 109.996-53.9109C114.156-49.4211 116.669-43.6746 116.669-36.6714C116.669-11.9347 101.675-6.51757 87.2782-4.93147C89.6269-3.01598 91.6033 0.979712 91.6033 6.99469C91.6033 15.584 91.6033 22.5872 91.6033 24.6673C91.6033 26.4181 92.7562 28.3336 96.0321 27.7357C121.592 19.1465 140.089-4.99238 140.089-33.3954C139.802-68.9663 110.905-97.8025 75.334-97.8025Z"/>
  </g>
  <g id="Light-L" transform="matrix(1 0 0 1 1078.76 1556)">
   <path d="M74.4362-96.4156C39.6639-96.4156 11.3972-68.1489 11.3972-33.3765C11.3972-5.60394 29.4731 18.0923 54.4869 26.4097C57.5751 26.9656 58.7897 25.0303 58.7897 23.3833C58.7897 21.8393 58.7897 17.9276 58.728 12.6366C41.208 16.4453 37.461 4.15456 37.461 4.15456C34.5994-3.17461 30.4613-5.04807 30.4613-5.04807C24.6762-8.9597 30.9554-8.85677 30.9554-8.85677C37.2963-8.36267 40.6521-2.35111 40.6521-2.35111C46.2725 7.34563 55.4134 4.48396 58.9956 2.93989C59.5515-1.13644 61.1985-3.89517 62.969-5.43924C48.9695-6.9833 34.3111-12.439 34.3111-36.6294C34.3111-43.4644 36.7405-49.0848 40.8168-53.4906C40.158-55.0346 38.0581-61.4785 41.4756-70.1871C41.4756-70.1871 46.7666-71.8958 58.8309-63.7432C63.7925-65.1225 69.2482-65.7813 74.6421-65.8431C79.9331-65.8431 85.3888-65.1225 90.4533-63.7432C102.518-71.8958 107.809-70.1871 107.809-70.1871C111.226-61.4785 109.023-55.0346 108.467-53.4906C112.544-49.0848 114.973-43.4644 114.973-36.6294C114.973-12.439 100.315-7.148 86.2123-5.60394C88.4769-3.73047 90.4533 0.181161 90.4533 6.02803C90.4533 14.4072 90.4533 21.2422 90.4533 23.2804C90.4533 24.9892 91.6062 26.8626 94.7561 26.3068C119.77 17.9276 137.846-5.70687 137.846-33.4795C137.475-68.2518 109.209-96.4156 74.4362-96.4156Z"/>
  </g>
  <g id="Thin-L" transform="matrix(1 0 0 1 783.245 1556)">
   <path d="M73.2489-94.5812C39.5327-94.5812 12.0998-67.1483 12.0998-33.4321C12.0998-6.49333 29.6198 16.4803 53.911 24.5753C56.888 25.0756 58.0471 23.2515 58.0471 21.6045C58.0471 20.1161 58.0471 16.3156 58.0409 11.1914C41.0212 14.8333 37.3854 2.93165 37.3854 2.93165C34.5793-4.17517 30.608-5.99305 30.608-5.99305C24.9897-9.79351 31.1021-9.63498 31.1021-9.63498C37.2207-9.14088 40.5209-3.35167 40.5209-3.35167C45.9745 6.06713 54.8931 3.26105 58.3641 1.77257C58.8644-2.19259 60.5114-4.84015 62.1708-6.32863C48.6159-7.81711 34.4023-13.106 34.4023-36.5738C34.4023-43.1865 36.7204-48.6401 40.6856-52.9347C40.0268-54.4232 38.038-60.7003 41.3444-69.1309C41.3444-69.1309 46.4686-70.7841 58.1994-62.8538C62.9943-64.1776 68.2832-64.8364 73.566-64.8425C78.6902-64.8425 83.9791-64.1776 88.9325-62.8538C100.663-70.7841 105.788-69.1309 105.788-69.1309C109.094-60.7003 106.947-54.4232 106.446-52.9347C110.411-48.6401 112.73-43.1865 112.73-36.5738C112.73-13.106 98.516-7.98181 84.8026-6.49333C86.9561-4.67545 88.9325-0.874986 88.9325 4.74953C88.9325 12.8507 88.9325 19.4634 88.9325 21.446C88.9325 23.0992 90.0854 24.9171 93.0685 24.4168C117.36 16.3156 134.88-6.65185 134.88-33.5906C134.398-67.3069 106.965-94.5812 73.2489-94.5812Z"/>
  </g>
  <g id="Ultralight-L" transform="matrix(1 0 0 1 487.146 1556)">
   <path d="M72.6408-93.6417C39.4655-93.6417 12.4597-66.6359 12.4597-33.4606C12.4597-6.94887 29.695 15.6546 53.6161 23.6358C56.5361 24.1076 57.6667 22.3405 57.6667 20.6935C57.6667 19.2335 57.6667 15.4899 57.689 10.4511C40.9255 14.0076 37.3467 2.30529 37.3467 2.30529C34.5691-4.68765 30.6832-6.47706 30.6832-6.47706C25.1502-10.2206 31.1773-10.0336 31.1773-10.0336C37.182-9.53948 40.4537-3.86415 40.4537-3.86415C45.8219 5.41229 54.6266 2.63469 58.0407 1.17468C58.5125-2.73354 60.1595-5.32416 61.7619-6.78417C48.4348-8.24417 34.449-13.4477 34.449-36.5453C34.449-43.0441 36.7102-48.4124 40.6184-52.65C39.9596-54.11 38.0278-60.3017 41.2772-68.59C41.2772-68.59 46.316-70.2147 57.876-62.3982C62.5854-63.6935 67.7889-64.3523 73.0148-64.3301C78.0536-64.3301 83.2571-63.6935 88.1535-62.3982C99.7135-70.2147 104.752-68.59 104.752-68.59C108.002-60.3017 105.883-54.11 105.411-52.65C109.319-48.4124 111.581-43.0441 111.581-36.5453C111.581-13.4477 97.5947-8.40887 84.0806-6.94887C86.1771-5.15946 88.1535-1.41594 88.1535 4.09469C88.1535 12.0535 88.1535 18.5524 88.1535 20.5065C88.1535 22.1312 89.3064 23.9206 92.2041 23.4488C116.125 15.4899 133.361-7.13586 133.361-33.6476C132.822-66.8228 105.816-93.6417 72.6408-93.6417Z"/>
  </g>
  <g id="Black-M" transform="matrix(1 0 0 1 2871.07 1126)">
   <path d="M62.2972-88.2131C32.7782-88.2131 8.85471-64.2896 8.85471-34.7706C8.85471-11.2299 24.1303 8.87501 45.3729 15.8742C48.0431 16.3852 49.0645 14.7251 49.0645 13.3322C49.0645 12.0556 49.0645 8.74741 48.9363 4.29021C34.0548 7.48208 30.9912-2.83655 30.9912-2.83655C28.5768-8.95318 25.0128-10.6019 25.0128-10.6019C20.1728-13.9101 25.3956-13.9107 25.3956-13.9107C30.7466-13.5279 33.5438-8.43211 33.5438-8.43211C38.2562-0.28393 46.0103-2.58135 49.0633-3.97491C49.5743-7.41069 50.9672-9.82567 52.4997-11.1023C40.6599-12.4958 28.1928-17.0807 28.1928-37.4514C28.1928-43.3022 30.2356-48.0146 33.6714-51.8225C33.161-53.2161 31.2564-58.5665 34.1818-65.949C34.1818-65.949 38.639-67.3533 48.8187-60.4817C53.0207-61.6307 57.6055-62.2581 62.1791-62.2694C66.7532-62.2694 71.338-61.6307 75.5394-60.4817C85.7191-67.3533 90.1763-65.949 90.1763-65.949C93.1017-58.5665 91.1977-53.2161 90.6867-51.8225C94.1225-48.1315 96.1653-43.3022 96.1653-37.4514C96.1653-16.9637 83.6982-12.3896 71.7421-11.113C73.6574-9.4642 75.3055-6.15602 75.3055-1.1878C75.3055 5.93959 75.1886 11.6734 75.1886 13.4498C75.1886 14.854 76.1987 16.5028 78.8802 15.9917C100.474 8.74741 115.749-11.2293 115.749-34.77C115.74-64.289 91.8163-88.2131 62.2972-88.2131Z"/>
  </g>
  <g id="Heavy-M" transform="matrix(1 0 0 1 2575.18 1126)">
   <path d="M61.4898-87.3374C32.3261-87.3374 8.68027-63.6915 8.68027-34.5278C8.68027-11.2648 23.7891 8.60134 44.7654 15.5228C47.3967 16.0282 48.4125 14.3794 48.4125 13.0141C48.4125 11.7431 48.4125 8.47374 48.2899 4.06102C33.5971 7.236 30.5447-2.98802 30.5447-2.98802C28.1636-9.05453 24.6441-10.6701 24.6441-10.6701C19.8486-13.9394 25.0269-13.9344 25.0269-13.9344C30.3278-13.5516 33.0917-8.50587 33.0917-8.50587C37.7596-0.44103 45.4084-2.73282 48.4225-4.09315C48.9279-7.49008 50.2933-9.8662 51.8145-11.1372C40.1025-12.4975 27.7908-17.0378 27.7908-37.1974C27.7908-42.9705 29.8224-47.6384 33.2193-51.3798C32.7089-52.7402 30.8432-58.0461 33.7297-65.3453C33.7297-65.3453 38.1424-66.7439 48.2056-59.9501C52.3631-61.0935 56.9034-61.6932 61.4105-61.7265C65.9125-61.7265 70.4529-61.0935 74.6154-59.9501C84.6786-66.7439 89.0913-65.3453 89.0913-65.3453C91.9778-58.0461 90.1071-52.7402 89.6017-51.3798C92.9986-47.7277 95.0302-42.9705 95.0302-37.1974C95.0302-16.9485 82.7185-12.4464 70.9122-11.1755C72.8162-9.55992 74.4367-6.2906 74.4367-1.37249C74.4367 5.67154 74.3474 11.3553 74.3474 13.0984C74.3474 14.497 75.3299 16.1125 77.9945 15.6071C99.2388 8.47374 114.348-11.2698 114.348-34.5328C114.299-63.6965 90.6535-87.3374 61.4898-87.3374Z"/>
  </g>
  <g id="Bold-M" transform="matrix(1 0 0 1 2279.4 1126)">
   <path d="M60.5866-86.3578C31.8204-86.3578 8.48514-63.0225 8.48514-34.2563C8.48514-11.3038 23.4075 8.2952 44.0858 15.1297C46.6737 15.6288 47.6832 13.9926 47.6832 12.6581C47.6832 11.3935 47.6832 8.1676 47.5669 3.80465C33.0851 6.96073 30.0453-3.15746 30.0453-3.15746C27.7014-9.16791 24.2316-10.7463 24.2316-10.7463C19.4859-13.9721 24.6144-13.9608 24.6144-13.9608C29.8593-13.578 32.586-8.58837 32.586-8.58837C37.2042-0.616769 44.7351-2.90226 47.7058-4.22542C48.2049-7.57888 49.5394-9.91153 51.0479-11.1762C39.479-12.4994 27.3412-16.9899 27.3412-36.9133C27.3412-42.5994 29.3602-47.2176 32.7136-50.8847C32.2032-52.2078 30.381-57.464 33.224-64.67C33.224-64.67 37.587-66.0623 47.5197-59.3554C51.6275-60.4925 56.118-61.0613 60.5508-61.1192C64.9722-61.1192 69.4627-60.4925 73.5818-59.3554C83.5145-66.0623 87.8775-64.67 87.8775-64.67C90.7205-57.464 88.887-52.2078 88.3879-50.8847C91.7413-47.276 93.7603-42.5994 93.7603-36.9133C93.7603-16.9315 81.6225-12.5101 69.9838-11.2454C71.8752-9.667 73.4648-6.44115 73.4648-1.5791C73.4648 5.3717 73.4064 10.9993 73.4064 12.7053C73.4064 14.0976 74.358 15.676 77.0037 15.1769C97.8574 8.1676 112.78-11.3151 112.78-34.2676C112.688-63.0338 89.3528-86.3578 60.5866-86.3578Z"/>
  </g>
  <g id="Semibold-M" transform="matrix(1 0 0 1 1983.32 1126)">
   <path d="M59.9639-85.6824C31.4718-85.6824 8.35062-62.5613 8.35062-34.0691C8.35062-11.3307 23.1445 8.08414 43.6173 14.8587C46.1752 15.3535 47.1804 13.726 47.1804 12.4128C47.1804 11.1524 47.1804 7.95654 47.0684 3.6279C32.7321 6.77096 29.701-3.27427 29.701-3.27427C27.3827-9.24607 23.9473-10.7988 23.9473-10.7988C19.2358-13.9947 24.3301-13.979 24.3301-13.979C29.5363-13.5962 32.2374-8.64525 32.2374-8.64525C36.8212-0.737923 44.271-3.01907 47.2117-4.31661C47.7064-7.6401 49.0196-9.94279 50.5195-11.2031C39.0492-12.5007 27.0312-16.9569 27.0312-36.7174C27.0312-42.3436 29.0415-46.9274 32.365-50.5433C31.8546-51.8408 30.0623-57.0627 32.8754-64.2044C32.8754-64.2044 37.204-65.5924 47.0469-58.9454C51.1203-60.0781 55.5766-60.6257 59.958-60.7005C64.3239-60.7005 68.7801-60.0781 72.8692-58.9454C82.7121-65.5924 87.0407-64.2044 87.0407-64.2044C89.8538-57.0627 88.0459-51.8408 87.5511-50.5433C90.8746-46.9646 92.8849-42.3436 92.8849-36.7174C92.8849-16.9197 80.8669-12.5539 69.3437-11.2936C71.2264-9.74082 72.7948-6.54493 72.7948-1.72154C72.7948 5.16499 72.7576 10.754 72.7576 12.4343C72.7576 13.8223 73.688 15.375 76.3207 14.8803C96.9051 7.95654 111.699-11.3464 111.699-34.0848C111.577-62.5769 88.4561-85.6824 59.9639-85.6824Z"/>
  </g>
  <g id="Medium-M" transform="matrix(1 0 0 1 1687.09 1126)">
   <path d="M59.4918-85.1704C31.2074-85.1704 8.24862-62.2115 8.24862-33.9272C8.24862-11.3511 22.945 7.92411 43.2621 14.6532C45.7973 15.1447 46.7991 13.5238 46.7991 12.2267C46.7991 10.9697 46.7991 7.79651 46.6905 3.49389C32.4645 6.62707 29.44-3.36285 29.44-3.36285C27.1411-9.30533 23.7317-10.8386 23.7317-10.8386C19.0462-14.0118 24.1145-13.9929 24.1145-13.9929C29.2913-13.6101 31.973-8.68838 31.973-8.68838C36.5309-0.829786 43.9191-3.10765 46.837-4.38575C47.3285-7.68652 48.6255-9.96649 50.1188-11.2235C38.7232-12.5017 26.7962-16.9319 26.7962-36.5689C26.7962-42.1496 28.7999-46.7075 32.1006-50.2845C31.5902-51.5626 29.8207-56.7584 32.611-63.8514C32.611-63.8514 36.9137-65.2361 46.6884-58.6345C50.7358-59.764 55.166-60.2954 59.5086-60.383C63.8323-60.383 68.2625-59.764 72.3289-58.6345C82.1036-65.2361 86.4062-63.8514 86.4062-63.8514C89.1966-56.7584 87.4081-51.5626 86.9166-50.2845C90.2174-46.7285 92.2211-42.1496 92.2211-36.5689C92.2211-16.9108 80.294-12.5872 68.8584-11.3301C70.7346-9.79679 72.2868-6.62362 72.2868-1.82954C72.2868 5.00825 72.2658 10.5679 72.2658 12.2288C72.2658 13.6135 73.18 15.1468 75.8028 14.6554C96.183 7.79651 110.879-11.3701 110.879-33.9461C110.735-62.2305 87.7762-85.1704 59.4918-85.1704Z"/>
  </g>
  <g id="Regular-M" transform="matrix(1 0 0 1 1391.01 1126)">
   <path d="M58.876-84.5024C30.8626-84.5024 8.11557-61.7554 8.11557-33.742C8.11557-11.3778 22.6848 7.71538 42.7988 14.3852C45.3043 14.8724 46.3019 13.2601 46.3019 11.9841C46.3019 10.7313 46.3019 7.58778 46.1975 3.31909C32.1154 6.43938 29.0995-3.47837 29.0995-3.47837C26.8259-9.38263 23.4504-10.8906 23.4504-10.8906C18.7989-14.0341 23.8332-14.0109 23.8332-14.0109C28.9719-13.6281 31.6282-8.74463 31.6282-8.74463C36.1521-0.949609 43.46-3.22317 46.3483-4.47594C46.8355-7.74707 48.1115-9.9974 49.5962-11.2502C38.2981-12.5029 26.4896-16.8992 26.4896-36.3752C26.4896-41.8966 28.4847-46.4205 31.7558-49.9468C31.2454-51.1996 29.5055-56.3615 32.2662-63.3909C32.2662-63.3909 36.5349-64.7713 46.2207-58.229C50.2342-59.3542 54.6305-59.8646 58.9224-59.969C63.1911-59.969 67.5874-59.3542 71.6242-58.229C81.31-64.7713 85.5786-63.3909 85.5786-63.3909C88.3394-56.3615 86.5762-51.1996 86.089-49.9468C89.3602-46.4205 91.3553-41.8966 91.3553-36.3752C91.3553-16.8992 79.5468-12.6305 68.2254-11.3778C70.093-9.8698 71.6242-6.72627 71.6242-1.97041C71.6242 4.80382 71.6242 10.3253 71.6242 11.9608C71.6242 13.3412 72.5174 14.8492 75.1273 14.362C95.2412 7.58778 109.81-11.401 109.81-33.7653C109.636-61.7786 86.8893-84.5024 58.876-84.5024Z"/>
  </g>
  <g id="Light-M" transform="matrix(1 0 0 1 1095.11 1126)">
   <path d="M58.0711-83.259C30.7737-83.259 8.59186-61.0771 8.59186-33.7797C8.59186-11.9807 22.7843 6.62263 42.4084 13.1418C44.8386 13.5912 45.7984 12.0543 45.7984 10.7783C45.7984 9.56319 45.7984 6.49503 45.7318 2.33938C31.9888 5.34663 29.0482-4.30736 29.0482-4.30736C26.8124-10.0609 23.5499-11.5312 23.5499-11.5312C19.0114-14.5993 23.9327-14.5384 23.9327-14.5384C28.9206-14.1556 31.5393-9.42289 31.5393-9.42289C35.9502-1.81628 43.1073-4.05216 45.9203-5.26724C46.3698-8.46301 47.6458-10.638 49.0551-11.8531C38.0585-13.0681 26.5514-17.3514 26.5514-36.3375C26.5514-41.7082 28.4712-46.1191 31.6669-49.57C31.1565-50.7851 29.492-55.834 32.1773-62.675C32.1773-62.675 36.333-64.0177 45.7927-57.6261C49.6931-58.7136 53.9764-59.224 58.1929-59.2907C62.3486-59.2907 66.6318-58.7136 70.5932-57.6261C80.0529-64.0177 84.2086-62.675 84.2086-62.675C86.8939-55.834 85.1684-50.7851 84.719-49.57C87.9147-46.1191 89.8345-41.7082 89.8345-36.3375C89.8345-17.3514 78.3274-13.1957 67.2698-11.9807C69.062-10.5104 70.5932-7.44221 70.5932-2.83708C70.5932 3.74874 70.5932 9.11948 70.5932 10.7174C70.5932 12.06 71.4864 13.5303 73.9833 13.0808C93.6073 6.49503 107.8-12.0416 107.8-33.8406C107.55-61.138 85.3685-83.259 58.0711-83.259Z"/>
  </g>
  <g id="Thin-M" transform="matrix(1 0 0 1 799.469 1126)">
   <path d="M57.0066-81.6144C30.6561-81.6144 9.22179-60.1801 9.22179-33.8296C9.22179-12.778 22.9159 5.17737 41.8921 11.4972C44.2226 11.8968 45.1326 10.4595 45.1326 9.18351C45.1326 8.01827 45.1326 5.04977 45.1158 1.04363C31.8214 3.90137 28.9805-5.40376 28.9805-5.40376C26.7944-10.9579 23.6815-12.3784 23.6815-12.3784C19.2925-15.3469 24.0643-15.2361 24.0643-15.2361C28.8529-14.8533 31.4217-10.3199 31.4217-10.3199C35.683-2.96251 42.6408-5.14856 45.3541-6.31381C45.7538-9.4099 47.0298-11.4852 48.3395-12.6504C37.7415-13.8157 26.6331-17.9494 26.6331-36.2876C26.6331-41.459 28.4532-45.7204 31.5493-49.0717C31.0389-50.2369 29.474-55.1363 32.0597-61.7281C32.0597-61.7281 36.0658-63.0209 45.2265-56.8288C48.9775-57.8664 53.1112-58.3768 57.2281-58.3937C61.2342-58.3937 65.368-57.8664 69.2297-56.8288C78.3904-63.0209 82.3965-61.7281 82.3965-61.7281C84.9822-55.1363 83.3066-50.2369 82.9069-49.0717C86.003-45.7204 87.8231-41.459 87.8231-36.2876C87.8231-17.9494 76.7147-13.9433 66.006-12.778C67.6985-11.3576 69.2297-8.3891 69.2297-3.98331C69.2297 2.35332 69.2297 7.52471 69.2297 9.07276C69.2297 10.3656 70.1229 11.7861 72.4702 11.3864C91.4464 5.04977 105.141-12.8888 105.141-33.9403C104.791-60.2908 83.3571-81.6144 57.0066-81.6144Z"/>
  </g>
  <g id="Ultralight-M" transform="matrix(1 0 0 1 503.307 1126)">
   <path d="M56.4614-80.772C30.5959-80.772 9.54444-59.7206 9.54444-33.8551C9.54444-13.1865 22.9833 4.43712 41.6276 10.6548C43.9071 11.0289 44.7916 9.64268 44.7916 8.36668C44.7916 7.22696 44.7916 4.30952 44.8003 0.379956C31.7356 3.16112 28.9457-5.96533 28.9457-5.96533C26.7852-11.4174 23.7489-12.8123 23.7489-12.8123C19.4365-15.7298 24.1317-15.5935 24.1317-15.5935C28.8181-15.2107 31.3615-10.7794 31.3615-10.7794C35.5462-3.54961 42.4019-5.71013 45.0642-6.84985C45.4383-9.89489 46.7143-11.9191 47.9729-13.0589C37.5791-14.1986 26.675-18.2557 26.675-36.2621C26.675-41.3314 28.444-45.5162 31.4891-48.8164C30.9787-49.9561 29.4648-54.7789 31.9995-61.2431C31.9995-61.2431 35.929-62.5104 44.9366-56.4203C48.6109-57.4325 52.6681-57.9429 56.7339-57.9342C60.6635-57.9342 64.7207-57.4325 68.5313-56.4203C77.5388-62.5104 81.4684-61.2431 81.4684-61.2431C84.003-54.7789 82.3529-49.9561 81.9788-48.8164C85.0238-45.5162 86.7929-41.3314 86.7929-36.2621C86.7929-18.2557 75.8887-14.3262 65.3587-13.1865C67.0001-11.7915 68.5313-8.87409 68.5313-4.57041C68.5313 1.6386 68.5313 6.70788 68.5313 8.23041C68.5313 9.49773 69.4245 10.8926 71.6953 10.5185C90.3396 4.30952 103.778-13.3227 103.778-33.9914C103.378-59.8569 82.3269-80.772 56.4614-80.772Z"/>
  </g>
  <g id="Black-S" transform="matrix(1 0 0 1 2884.35 696)">
   <path d="M49.02-76.95C25.82-76.95 7.02-58.15 7.02-34.95C7.02-16.45 19.02-0.65 35.72 4.85C37.82 5.25 38.62 3.95 38.62 2.85C38.62 1.85 38.62-0.75 38.52-4.25C26.82-1.75 24.42-9.85 24.42-9.85C22.52-14.65 19.72-15.95 19.72-15.95C15.92-18.55 20.02-18.55 20.02-18.55C24.22-18.25 26.42-14.25 26.42-14.25C30.12-7.85 36.22-9.65 38.62-10.75C39.02-13.45 40.12-15.35 41.32-16.35C32.02-17.45 22.22-21.05 22.22-37.05C22.22-41.65 23.82-45.35 26.52-48.35C26.12-49.45 24.62-53.65 26.92-59.45C26.92-59.45 30.42-60.55 38.42-55.15C41.72-56.05 45.32-56.55 48.92-56.55C52.52-56.55 56.12-56.05 59.42-55.15C67.42-60.55 70.92-59.45 70.92-59.45C73.22-53.65 71.72-49.45 71.32-48.35C74.02-45.45 75.62-41.65 75.62-37.05C75.62-20.95 65.82-17.35 56.42-16.35C57.92-15.05 59.22-12.45 59.22-8.55C59.22-2.95 59.12 1.55 59.12 2.95C59.12 4.05 59.92 5.35 62.02 4.95C79.02-0.75 91.02-16.45 91.02-34.95C91.02-58.15 72.22-76.95 49.02-76.95Z"/>
  </g>
  <g id="Heavy-S" transform="matrix(1 0 0 1 2588.24 696)">
   <path d="M48.4323-76.3599C25.4447-76.3599 6.80994-57.7252 6.80994-34.7376C6.80994-16.4028 18.7155-0.744408 35.2503 4.70839C37.3267 5.10839 38.1267 3.80839 38.1267 2.73199C38.1267 1.73199 38.1267-0.844408 38.0267-4.32081C26.4447-1.82081 24.0447-9.8736 24.0447-9.8736C22.1683-14.65 19.3919-15.9264 19.3919-15.9264C15.6155-18.5028 19.6919-18.5028 19.6919-18.5028C23.8683-18.2028 26.0447-14.2264 26.0447-14.2264C29.7211-7.8736 35.7503-9.6736 38.1267-10.75C38.5267-13.4264 39.6031-15.3028 40.8031-16.3028C31.5739-17.3792 21.8683-20.9556 21.8683-36.8376C21.8683-41.3904 23.4683-45.0668 26.1447-48.0196C25.7447-49.096 24.2683-53.2724 26.5447-59.0252C26.5447-59.0252 30.0211-60.1252 37.9503-54.7724C41.2267-55.6724 44.8031-56.1488 48.3559-56.1724C51.9087-56.1724 55.4851-55.6724 58.7615-54.7724C66.6907-60.1252 70.1671-59.0252 70.1671-59.0252C72.4435-53.2724 70.9671-49.096 70.5671-48.0196C73.2435-45.1432 74.8435-41.3904 74.8435-36.8376C74.8435-20.8792 65.1379-17.3264 55.8323-16.3264C57.3323-15.05 58.6087-12.4736 58.6087-8.5972C58.6087-3.04441 58.5323 1.43199 58.5323 2.80839C58.5323 3.90839 59.3087 5.18479 61.4087 4.78479C78.1727-0.844408 90.0783-16.4028 90.0783-34.7376C90.0547-57.7252 71.4199-76.3599 48.4323-76.3599Z"/>
  </g>
  <g id="Bold-S" transform="matrix(1 0 0 1 2292.2 696)">
   <path d="M47.775-75.7C25.025-75.7 6.575-57.25 6.575-34.5C6.575-16.35 18.375-0.85 34.725 4.55C36.775 4.95 37.575 3.65 37.575 2.6C37.575 1.6 37.575-0.95 37.475-4.4C26.025-1.9 23.625-9.9 23.625-9.9C21.775-14.65 19.025-15.9 19.025-15.9C15.275-18.45 19.325-18.45 19.325-18.45C23.475-18.15 25.625-14.2 25.625-14.2C29.275-7.9 35.225-9.7 37.575-10.75C37.975-13.4 39.025-15.25 40.225-16.25C31.075-17.3 21.475-20.85 21.475-36.6C21.475-41.1 23.075-44.75 25.725-47.65C25.325-48.7 23.875-52.85 26.125-58.55C26.125-58.55 29.575-59.65 37.425-54.35C40.675-55.25 44.225-55.7 47.725-55.75C51.225-55.75 54.775-55.25 58.025-54.35C65.875-59.65 69.325-58.55 69.325-58.55C71.575-52.85 70.125-48.7 69.725-47.65C72.375-44.8 73.975-41.1 73.975-36.6C73.975-20.8 64.375-17.3 55.175-16.3C56.675-15.05 57.925-12.5 57.925-8.65C57.925-3.15 57.875 1.3 57.875 2.65C57.875 3.75 58.625 5 60.725 4.6C77.225-0.95 89.025-16.35 89.025-34.5C88.975-57.25 70.525-75.7 47.775-75.7Z"/>
  </g>
  <g id="Semibold-S" transform="matrix(1 0 0 1 1995.96 696)">
   <path d="M47.3218-75.245C24.7356-75.245 6.41302-56.9224 6.41302-34.3362C6.41302-16.3136 18.1402-0.9228 34.3628 4.4408C36.3946 4.8408 37.1946 3.5408 37.1946 2.509C37.1946 1.509 37.1946-1.0228 37.0946-4.4546C25.7356-1.9546 23.3356-9.9182 23.3356-9.9182C21.5038-14.65 18.772-15.8818 18.772-15.8818C15.0402-18.4136 19.072-18.4136 19.072-18.4136C23.2038-18.1136 25.3356-14.1818 25.3356-14.1818C28.9674-7.9182 34.8628-9.7182 37.1946-10.75C37.5946-13.3818 38.6264-15.2136 39.8264-16.2136C30.731-17.2454 21.2038-20.7772 21.2038-36.4362C21.2038-40.8998 22.8038-44.5316 25.4356-47.3952C25.0356-48.427 23.6038-52.5588 25.8356-58.2224C25.8356-58.2224 29.2674-59.3224 37.0628-54.0588C40.2946-54.9588 43.8264-55.3906 47.29-55.4588C50.7536-55.4588 54.2854-54.9588 57.5172-54.0588C65.3126-59.3224 68.7444-58.2224 68.7444-58.2224C70.9762-52.5588 69.5444-48.427 69.1444-47.3952C71.7762-44.5634 73.3762-40.8998 73.3762-36.4362C73.3762-20.7454 63.849-17.2818 54.7218-16.2818C56.2218-15.05 57.4536-12.5182 57.4536-8.6864C57.4536-3.2228 57.4218 1.209 57.4218 2.5408C57.4218 3.6408 58.1536 4.8726 60.2536 4.4726C76.5716-1.0228 88.2988-16.3136 88.2988-34.3362C88.2306-56.9224 69.908-75.245 47.3218-75.245Z"/>
  </g>
  <g id="Medium-S" transform="matrix(1 0 0 1 1699.6 696)">
   <path d="M46.9782-74.9C24.5162-74.9 6.2902-56.674 6.2902-34.212C6.2902-16.286 17.9622-0.978 34.0882 4.358C36.1062 4.758 36.9062 3.458 36.9062 2.44C36.9062 1.44 36.9062-1.078 36.8062-4.496C25.5162-1.996 23.1162-9.932 23.1162-9.932C21.2982-14.65 18.5802-15.868 18.5802-15.868C14.8622-18.386 18.8802-18.386 18.8802-18.386C22.9982-18.086 25.1162-14.168 25.1162-14.168C28.7342-7.932 34.5882-9.732 36.9062-10.75C37.3062-13.368 38.3242-15.186 39.5242-16.186C30.4702-17.204 20.9982-20.722 20.9982-36.312C20.9982-40.748 22.5982-44.366 25.2162-47.202C24.8162-48.22 23.3982-52.338 25.6162-57.974C25.6162-57.974 29.0342-59.074 36.7882-53.838C40.0062-54.738 43.5242-55.156 46.9602-55.238C50.3962-55.238 53.9142-54.738 57.1322-53.838C64.8862-59.074 68.3042-57.974 68.3042-57.974C70.5222-52.338 69.1042-48.22 68.7042-47.202C71.3222-44.384 72.9222-40.748 72.9222-36.312C72.9222-20.704 63.4502-17.268 54.3782-16.268C55.8782-15.05 57.0962-12.532 57.0962-8.714C57.0962-3.278 57.0782 1.14 57.0782 2.458C57.0782 3.558 57.7962 4.776 59.8962 4.376C76.0762-1.078 87.7482-16.286 87.7482-34.212C87.6662-56.674 69.4402-74.9 46.9782-74.9Z"/>
  </g>
  <g id="Regular-S" transform="matrix(1 0 0 1 1403.34 696)">
   <path d="M46.53-74.45C24.23-74.45 6.13-56.35 6.13-34.05C6.13-16.25 17.73-1.05 33.73 4.25C35.73 4.65 36.53 3.35 36.53 2.35C36.53 1.35 36.53-1.15 36.43-4.55C25.23-2.05 22.83-9.95 22.83-9.95C21.03-14.65 18.33-15.85 18.33-15.85C14.63-18.35 18.63-18.35 18.63-18.35C22.73-18.05 24.83-14.15 24.83-14.15C28.43-7.95 34.23-9.75 36.53-10.75C36.93-13.35 37.93-15.15 39.13-16.15C30.13-17.15 20.73-20.65 20.73-36.15C20.73-40.55 22.33-44.15 24.93-46.95C24.53-47.95 23.13-52.05 25.33-57.65C25.33-57.65 28.73-58.75 36.43-53.55C39.63-54.45 43.13-54.85 46.53-54.95C49.93-54.95 53.43-54.45 56.63-53.55C64.33-58.75 67.73-57.65 67.73-57.65C69.93-52.05 68.53-47.95 68.13-46.95C70.73-44.15 72.33-40.55 72.33-36.15C72.33-20.65 62.93-17.25 53.93-16.25C55.43-15.05 56.63-12.55 56.63-8.75C56.63-3.35 56.63 1.05 56.63 2.35C56.63 3.45 57.33 4.65 59.43 4.25C75.43-1.15 87.03-16.25 87.03-34.05C86.93-56.35 68.83-74.45 46.53-74.45Z"/>
  </g>
  <g id="Light-S" transform="matrix(1 0 0 1 1107.35 696)">
   <path d="M45.818-73.35C24.1513-73.35 6.55133-55.75 6.55133-34.0833C6.55133-16.7833 17.818-2.01667 33.3847 3.15C35.318 3.51667 36.0847 2.28333 36.0847 1.28333C36.0847 0.316667 36.0847-2.11667 36.018-5.41667C25.118-3.01667 22.7847-10.6833 22.7847-10.6833C21.018-15.25 18.418-16.4167 18.418-16.4167C14.818-18.85 18.718-18.8167 18.718-18.8167C22.6847-18.5167 24.7513-14.75 24.7513-14.75C28.2513-8.71667 33.918-10.4833 36.1513-11.45C36.518-13.9833 37.518-15.7167 38.6513-16.6833C29.918-17.65 20.7847-21.05 20.7847-36.1167C20.7847-40.3833 22.318-43.8833 24.8513-46.6167C24.4513-47.5833 23.118-51.5833 25.2513-57.0167C25.2513-57.0167 28.5513-58.0833 36.0513-53.0167C39.1513-53.8833 42.5513-54.2833 45.8847-54.35C49.1847-54.35 52.5847-53.8833 55.718-53.0167C63.218-58.0833 66.518-57.0167 66.518-57.0167C68.6513-51.5833 67.2847-47.5833 66.918-46.6167C69.4513-43.8833 70.9847-40.3833 70.9847-36.1167C70.9847-21.05 61.8513-17.75 53.0847-16.7833C54.518-15.6167 55.718-13.1833 55.718-9.51667C55.718-4.28333 55.718-0.0166667 55.718 1.25C55.718 2.31667 56.418 3.48333 58.418 3.11667C73.9847-2.11667 85.2513-16.8167 85.2513-34.1167C85.0847-55.7833 67.4847-73.35 45.818-73.35Z"/>
  </g>
  <g id="Thin-S" transform="matrix(1 0 0 1 811.587 696)">
   <path d="M44.8763-71.8952C24.0473-71.8952 7.10858-54.9565 7.10858-34.1274C7.10858-17.4887 17.9344-3.29516 32.9279 1.69516C34.7731 2.01774 35.4957 0.872581 35.4957-0.127419C35.4957-1.05 35.4957-3.39516 35.4731-6.5629C24.9699-4.29516 22.7247-11.6532 22.7247-11.6532C21.0021-16.0435 18.5344-17.1661 18.5344-17.1661C15.0666-19.5113 18.8344-19.4339 18.8344-19.4339C22.6247-19.1339 24.6473-15.5435 24.6473-15.5435C28.015-9.73065 33.5054-11.4532 35.6505-12.3758C35.9731-14.821 36.9731-16.4661 38.0183-17.3887C29.6376-18.3113 20.857-21.579 20.857-36.0726C20.857-40.1629 22.3021-43.5306 24.7473-46.1758C24.3473-47.0984 23.1021-50.9661 25.1473-56.179C25.1473-56.179 28.315-57.2016 35.5505-52.3113C38.5183-53.1339 41.786-53.5339 45.0312-53.5565C48.1989-53.5565 51.4666-53.1339 54.5118-52.3113C61.7473-57.2016 64.915-56.179 64.915-56.179C66.9602-50.9661 65.6376-47.0984 65.315-46.1758C67.7602-43.5306 69.2054-40.1629 69.2054-36.0726C69.2054-21.579 60.4247-18.4113 51.9666-17.4887C53.3118-16.3661 54.5118-14.021 54.5118-10.5306C54.5118-5.51774 54.5118-1.42742 54.5118-0.204839C54.5118 0.817742 55.2118 1.94032 57.0795 1.61774C72.0731-3.39516 82.8989-17.5661 82.8989-34.2048C82.6441-55.0339 65.7054-71.8952 44.8763-71.8952Z"/>
  </g>
  <g id="Ultralight-S" transform="matrix(1 0 0 1 515.361 696)">
   <path d="M44.394-71.15C23.994-71.15 7.394-54.55 7.394-34.15C7.394-17.85 17.994-3.95 32.694 0.95C34.494 1.25 35.194 0.15 35.194-0.85C35.194-1.75 35.194-4.05 35.194-7.15C24.894-4.95 22.694-12.15 22.694-12.15C20.994-16.45 18.594-17.55 18.594-17.55C15.194-19.85 18.894-19.75 18.894-19.75C22.594-19.45 24.594-15.95 24.594-15.95C27.894-10.25 33.294-11.95 35.394-12.85C35.694-15.25 36.694-16.85 37.694-17.75C29.494-18.65 20.894-21.85 20.894-36.05C20.894-40.05 22.294-43.35 24.694-45.95C24.294-46.85 23.094-50.65 25.094-55.75C25.094-55.75 28.194-56.75 35.294-51.95C38.194-52.75 41.394-53.15 44.594-53.15C47.694-53.15 50.894-52.75 53.894-51.95C60.994-56.75 64.094-55.75 64.094-55.75C66.094-50.65 64.794-46.85 64.494-45.95C66.894-43.35 68.294-40.05 68.294-36.05C68.294-21.85 59.694-18.75 51.394-17.85C52.694-16.75 53.894-14.45 53.894-11.05C53.894-6.15 53.894-2.15 53.894-0.95C53.894 0.05 54.594 1.15 56.394 0.85C71.094-4.05 81.694-17.95 81.694-34.25C81.394-54.65 64.794-71.15 44.394-71.15Z"/>
  </g>
 </g>
</svg>
