<?xml version="1.0" encoding="UTF-8"?>
<svg width="100px" height="101px" viewBox="0 0 100 101" version="1.1" xmlns="http://www.w3.org/2000/svg" xmlns:xlink="http://www.w3.org/1999/xlink">
    <title>Combined Shape</title>
    <defs>
        <linearGradient x1="19.2532352%" y1="40.8257212%" x2="100.658798%" y2="88.6971024%" id="linearGradient-1">
            <stop stop-color="#1F4EA7" offset="0%"></stop>
            <stop stop-color="#00DDFF" offset="100%"></stop>
        </linearGradient>
    </defs>
    <g id="Primary" stroke="none" stroke-width="1" fill="none" fill-rule="evenodd">
        <g id="primary" fill="url(#linearGradient-1)" fill-rule="nonzero">
            <path d="M49.999978,0 C63.2399248,0 105.768043,78.0955988 99.3435966,91.1068335 C92.9191498,104.118068 7.16460332,104.269866 0.669251309,91.1068335 C-5.8261007,77.9438011 36.7729231,0 49.999978,0 Z M50.0128699,20.5292847 C41.3430897,20.5292847 13.432199,71.6005492 17.6886636,80.2248293 C21.9451281,88.8491093 78.1300304,88.7536936 82.3392248,80.2248293 C86.5484192,71.6937964 58.68265,20.5292847 50.0128699,20.5292847 Z M49.9362218,39.0050235 C54.3366694,39.0071902 68.4494874,64.8991298 66.3169793,69.2151753 C64.1844713,73.5312208 35.711619,73.5788879 33.5554642,69.2151753 C31.3993094,64.8514626 45.5422233,39.0050235 49.9362218,39.0050235 Z" id="Combined-Shape"></path>
        </g>
    </g>
</svg>