<?xml version="1.0" encoding="UTF-8"?>
<!--Generator: Apple Native CoreSVG 149-->
<!DOCTYPE svg
PUBLIC "-//W3C//DTD SVG 1.1//EN"
       "http://www.w3.org/Graphics/SVG/1.1/DTD/svg11.dtd">
<svg version="1.1" xmlns="http://www.w3.org/2000/svg" xmlns:xlink="http://www.w3.org/1999/xlink" width="3300" height="2200">
 <!--glyph: "", point size: 100.0, font version: "17.0d9e1", template writer version: "59"-->
 <g id="Notes">
  <rect height="2200" id="artboard" style="fill:white;opacity:1" width="3300" x="0" y="0"/>
  <line style="fill:none;stroke:black;opacity:1;stroke-width:0.5;" x1="263" x2="3036" y1="292" y2="292"/>
  <text style="stroke:none;fill:black;font-family:sans-serif;font-size:13;font-weight:bold;" transform="matrix(1 0 0 1 263 322)">Weight/Scale Variations</text>
  <text style="stroke:none;fill:black;font-family:sans-serif;font-size:13;text-anchor:middle;" transform="matrix(1 0 0 1 559.711 322)">Ultralight</text>
  <text style="stroke:none;fill:black;font-family:sans-serif;font-size:13;text-anchor:middle;" transform="matrix(1 0 0 1 856.422 322)">Thin</text>
  <text style="stroke:none;fill:black;font-family:sans-serif;font-size:13;text-anchor:middle;" transform="matrix(1 0 0 1 1153.13 322)">Light</text>
  <text style="stroke:none;fill:black;font-family:sans-serif;font-size:13;text-anchor:middle;" transform="matrix(1 0 0 1 1449.84 322)">Regular</text>
  <text style="stroke:none;fill:black;font-family:sans-serif;font-size:13;text-anchor:middle;" transform="matrix(1 0 0 1 1746.56 322)">Medium</text>
  <text style="stroke:none;fill:black;font-family:sans-serif;font-size:13;text-anchor:middle;" transform="matrix(1 0 0 1 2043.27 322)">Semibold</text>
  <text style="stroke:none;fill:black;font-family:sans-serif;font-size:13;text-anchor:middle;" transform="matrix(1 0 0 1 2339.98 322)">Bold</text>
  <text style="stroke:none;fill:black;font-family:sans-serif;font-size:13;text-anchor:middle;" transform="matrix(1 0 0 1 2636.69 322)">Heavy</text>
  <text style="stroke:none;fill:black;font-family:sans-serif;font-size:13;text-anchor:middle;" transform="matrix(1 0 0 1 2933.4 322)">Black</text>
  <line style="fill:none;stroke:black;opacity:1;stroke-width:0.5;" x1="263" x2="3036" y1="1903" y2="1903"/>
  <g transform="matrix(1 0 0 1 263 1933)">
   <path d="M9.24805 0.830078Q10.8691 0.830078 12.2949 0.214844Q13.7207-0.400391 14.8096-1.49414Q15.8984-2.58789 16.5186-4.01367Q17.1387-5.43945 17.1387-7.05078Q17.1387-8.66211 16.5186-10.0879Q15.8984-11.5137 14.8047-12.6074Q13.7109-13.7012 12.2852-14.3164Q10.8594-14.9316 9.23828-14.9316Q7.62695-14.9316 6.20117-14.3164Q4.77539-13.7012 3.69141-12.6074Q2.60742-11.5137 1.9873-10.0879Q1.36719-8.66211 1.36719-7.05078Q1.36719-5.43945 1.9873-4.01367Q2.60742-2.58789 3.69629-1.49414Q4.78516-0.400391 6.21094 0.214844Q7.63672 0.830078 9.24805 0.830078ZM9.24805-0.654297Q7.91992-0.654297 6.7627-1.14746Q5.60547-1.64062 4.73145-2.51953Q3.85742-3.39844 3.36426-4.56055Q2.87109-5.72266 2.87109-7.05078Q2.87109-8.37891 3.35938-9.54102Q3.84766-10.7031 4.72168-11.582Q5.5957-12.4609 6.75293-12.9541Q7.91016-13.4473 9.23828-13.4473Q10.5762-13.4473 11.7334-12.9541Q12.8906-12.4609 13.7695-11.582Q14.6484-10.7031 15.1465-9.54102Q15.6445-8.37891 15.6445-7.05078Q15.6445-5.72266 15.1514-4.56055Q14.6582-3.39844 13.7842-2.51953Q12.9102-1.64062 11.748-1.14746Q10.5859-0.654297 9.24805-0.654297ZM5.83984-7.04102Q5.83984-6.71875 6.04492-6.51855Q6.25-6.31836 6.5918-6.31836L8.50586-6.31836L8.50586-4.39453Q8.50586-4.0625 8.70605-3.85742Q8.90625-3.65234 9.22852-3.65234Q9.56055-3.65234 9.76562-3.85742Q9.9707-4.0625 9.9707-4.39453L9.9707-6.31836L11.8945-6.31836Q12.2266-6.31836 12.4316-6.51855Q12.6367-6.71875 12.6367-7.04102Q12.6367-7.37305 12.4316-7.57812Q12.2266-7.7832 11.8945-7.7832L9.9707-7.7832L9.9707-9.69727Q9.9707-10.0391 9.76562-10.2441Q9.56055-10.4492 9.22852-10.4492Q8.90625-10.4492 8.70605-10.2441Q8.50586-10.0391 8.50586-9.69727L8.50586-7.7832L6.5918-7.7832Q6.25-7.7832 6.04492-7.57812Q5.83984-7.37305 5.83984-7.04102Z"/>
  </g>
  <g transform="matrix(1 0 0 1 281.867 1933)">
   <path d="M11.709 2.91016Q13.75 2.91016 15.5518 2.12891Q17.3535 1.34766 18.7305-0.0292969Q20.1074-1.40625 20.8887-3.20801Q21.6699-5.00977 21.6699-7.05078Q21.6699-9.0918 20.8887-10.8936Q20.1074-12.6953 18.7305-14.0723Q17.3535-15.4492 15.5469-16.2305Q13.7402-17.0117 11.6992-17.0117Q9.6582-17.0117 7.85645-16.2305Q6.05469-15.4492 4.68262-14.0723Q3.31055-12.6953 2.5293-10.8936Q1.74805-9.0918 1.74805-7.05078Q1.74805-5.00977 2.5293-3.20801Q3.31055-1.40625 4.6875-0.0292969Q6.06445 1.34766 7.86621 2.12891Q9.66797 2.91016 11.709 2.91016ZM11.709 1.25Q9.98047 1.25 8.47656 0.605469Q6.97266-0.0390625 5.83496-1.17676Q4.69727-2.31445 4.05762-3.81836Q3.41797-5.32227 3.41797-7.05078Q3.41797-8.7793 4.05762-10.2832Q4.69727-11.7871 5.83008-12.9297Q6.96289-14.0723 8.4668-14.7119Q9.9707-15.3516 11.6992-15.3516Q13.4277-15.3516 14.9316-14.7119Q16.4355-14.0723 17.5781-12.9297Q18.7207-11.7871 19.3652-10.2832Q20.0098-8.7793 20.0098-7.05078Q20.0098-5.32227 19.3701-3.81836Q18.7305-2.31445 17.5928-1.17676Q16.4551-0.0390625 14.9463 0.605469Q13.4375 1.25 11.709 1.25ZM7.39258-7.04102Q7.39258-6.68945 7.62695-6.46484Q7.86133-6.24023 8.23242-6.24023L10.8789-6.24023L10.8789-3.57422Q10.8789-3.21289 11.1035-2.9834Q11.3281-2.75391 11.6797-2.75391Q12.0508-2.75391 12.2852-2.9834Q12.5195-3.21289 12.5195-3.57422L12.5195-6.24023L15.1758-6.24023Q15.5371-6.24023 15.7715-6.46484Q16.0059-6.68945 16.0059-7.04102Q16.0059-7.41211 15.7715-7.6416Q15.5371-7.87109 15.1758-7.87109L12.5195-7.87109L12.5195-10.5176Q12.5195-10.8984 12.2852-11.1279Q12.0508-11.3574 11.6797-11.3574Q11.3281-11.3574 11.1035-11.1279Q10.8789-10.8984 10.8789-10.5176L10.8789-7.87109L8.23242-7.87109Q7.85156-7.87109 7.62207-7.6416Q7.39258-7.41211 7.39258-7.04102Z"/>
  </g>
  <g transform="matrix(1 0 0 1 305.646 1933)">
   <path d="M14.9707 5.66406Q17.0605 5.66406 18.96 5.01465Q20.8594 4.36523 22.4512 3.19336Q24.043 2.02148 25.2197 0.429688Q26.3965-1.16211 27.0459-3.06641Q27.6953-4.9707 27.6953-7.05078Q27.6953-9.14062 27.0459-11.04Q26.3965-12.9395 25.2197-14.5312Q24.043-16.123 22.4512-17.2998Q20.8594-18.4766 18.9551-19.126Q17.0508-19.7754 14.9609-19.7754Q12.8711-19.7754 10.9717-19.126Q9.07227-18.4766 7.48535-17.2998Q5.89844-16.123 4.72168-14.5312Q3.54492-12.9395 2.90039-11.04Q2.25586-9.14062 2.25586-7.05078Q2.25586-4.9707 2.90527-3.06641Q3.55469-1.16211 4.72656 0.429688Q5.89844 2.02148 7.49023 3.19336Q9.08203 4.36523 10.9814 5.01465Q12.8809 5.66406 14.9707 5.66406ZM14.9707 3.84766Q13.1641 3.84766 11.5283 3.2959Q9.89258 2.74414 8.53516 1.74805Q7.17773 0.751953 6.17676-0.610352Q5.17578-1.97266 4.62891-3.6084Q4.08203-5.24414 4.08203-7.05078Q4.08203-8.86719 4.62891-10.5029Q5.17578-12.1387 6.17188-13.501Q7.16797-14.8633 8.52539-15.8594Q9.88281-16.8555 11.5186-17.4023Q13.1543-17.9492 14.9609-17.9492Q16.7773-17.9492 18.4131-17.4023Q20.0488-16.8555 21.4111-15.8594Q22.7734-14.8633 23.7695-13.501Q24.7656-12.1387 25.3174-10.5029Q25.8691-8.86719 25.8691-7.05078Q25.8789-5.24414 25.332-3.6084Q24.7852-1.97266 23.7842-0.610352Q22.7832 0.751953 21.4209 1.74805Q20.0586 2.74414 18.4229 3.2959Q16.7871 3.84766 14.9707 3.84766ZM9.45312-7.04102Q9.45312-6.66016 9.71191-6.41113Q9.9707-6.16211 10.3711-6.16211L14.0625-6.16211L14.0625-2.46094Q14.0625-2.06055 14.3115-1.80664Q14.5605-1.55273 14.9414-1.55273Q15.3516-1.55273 15.6055-1.80664Q15.8594-2.06055 15.8594-2.46094L15.8594-6.16211L19.5605-6.16211Q19.9609-6.16211 20.2148-6.41113Q20.4688-6.66016 20.4688-7.04102Q20.4688-7.45117 20.2148-7.70508Q19.9609-7.95898 19.5605-7.95898L15.8594-7.95898L15.8594-11.6504Q15.8594-12.0605 15.6055-12.3145Q15.3516-12.5684 14.9414-12.5684Q14.5605-12.5684 14.3115-12.3096Q14.0625-12.0508 14.0625-11.6504L14.0625-7.95898L10.3711-7.95898Q9.96094-7.95898 9.70703-7.70508Q9.45312-7.45117 9.45312-7.04102Z"/>
  </g>
  <text style="stroke:none;fill:black;font-family:sans-serif;font-size:13;font-weight:bold;" transform="matrix(1 0 0 1 263 1953)">Design Variations</text>
  <text style="stroke:none;fill:black;font-family:sans-serif;font-size:13;" transform="matrix(1 0 0 1 263 1971)">Symbols are supported in up to nine weights and three scales.</text>
  <text style="stroke:none;fill:black;font-family:sans-serif;font-size:13;" transform="matrix(1 0 0 1 263 1989)">For optimal layout with text and other symbols, vertically align</text>
  <text style="stroke:none;fill:black;font-family:sans-serif;font-size:13;" transform="matrix(1 0 0 1 263 2007)">symbols with the adjacent text.</text>
  <line style="fill:none;stroke:#00AEEF;stroke-width:0.5;opacity:1.0;" x1="776" x2="776" y1="1919" y2="1933"/>
  <g transform="matrix(1 0 0 1 776 1933)">
   <path d="M3.31055 0.15625Q3.70117 0.15625 3.91602-0.00976562Q4.13086-0.175781 4.26758-0.585938L5.52734-4.0332L11.2891-4.0332L12.5488-0.585938Q12.6855-0.175781 12.9004-0.00976562Q13.1152 0.15625 13.4961 0.15625Q13.8867 0.15625 14.1162-0.0585938Q14.3457-0.273438 14.3457-0.644531Q14.3457-0.869141 14.2383-1.17188L9.6582-13.3691Q9.48242-13.8184 9.17969-14.043Q8.87695-14.2676 8.4082-14.2676Q7.5-14.2676 7.17773-13.3789L2.59766-1.16211Q2.49023-0.859375 2.49023-0.634766Q2.49023-0.263672 2.70996-0.0537109Q2.92969 0.15625 3.31055 0.15625ZM6.00586-5.51758L8.37891-12.0898L8.42773-12.0898L10.8008-5.51758Z"/>
  </g>
  <line style="fill:none;stroke:#00AEEF;stroke-width:0.5;opacity:1.0;" x1="793.197" x2="793.197" y1="1919" y2="1933"/>
  <text style="stroke:none;fill:black;font-family:sans-serif;font-size:13;font-weight:bold;" transform="matrix(1 0 0 1 776 1953)">Margins</text>
  <text style="stroke:none;fill:black;font-family:sans-serif;font-size:13;" transform="matrix(1 0 0 1 776 1971)">Leading and trailing margins on the left and right side of each symbol</text>
  <text style="stroke:none;fill:black;font-family:sans-serif;font-size:13;" transform="matrix(1 0 0 1 776 1989)">can be adjusted by modifying the x-location of the margin guidelines.</text>
  <text style="stroke:none;fill:black;font-family:sans-serif;font-size:13;" transform="matrix(1 0 0 1 776 2007)">Modifications are automatically applied proportionally to all</text>
  <text style="stroke:none;fill:black;font-family:sans-serif;font-size:13;" transform="matrix(1 0 0 1 776 2025)">scales and weights.</text>
  <g transform="matrix(1 0 0 1 1289 1933)">
   <path d="M2.8418 1.86523L4.54102 3.57422Q5.18555 4.22852 5.90332 4.17969Q6.62109 4.13086 7.31445 3.35938L18.0078-8.42773L17.041-9.4043L6.42578 2.27539Q6.16211 2.57812 5.89355 2.61719Q5.625 2.65625 5.27344 2.30469L4.10156 1.14258Q3.75 0.791016 3.79395 0.522461Q3.83789 0.253906 4.14062-0.0195312L15.6152-10.8203L14.6387-11.7871L3.04688-0.898438Q2.30469-0.214844 2.25098 0.498047Q2.19727 1.21094 2.8418 1.86523ZM9.25781-16.3281Q8.94531-16.0254 8.90625-15.6348Q8.86719-15.2441 9.04297-14.9512Q9.21875-14.6777 9.55566-14.541Q9.89258-14.4043 10.3809-14.5215Q11.4746-14.7754 12.5977-14.7314Q13.7207-14.6875 14.7949-13.9844L14.209-12.5293Q13.9551-11.9043 14.0674-11.4404Q14.1797-10.9766 14.5801-10.5664L16.875-8.25195Q17.2363-7.88086 17.5781-7.82227Q17.9199-7.76367 18.3398-7.8418L19.4043-8.03711L20.0684-7.36328L20.0293-6.80664Q20-6.43555 20.1221-6.12305Q20.2441-5.81055 20.6055-5.44922L21.3672-4.70703Q21.7285-4.3457 22.1533-4.33105Q22.5781-4.31641 22.9297-4.66797L25.8398-7.58789Q26.1914-7.93945 26.1816-8.35449Q26.1719-8.76953 25.8105-9.13086L25.0391-9.89258Q24.6875-10.2539 24.3799-10.3857Q24.0723-10.5176 23.7109-10.4883L23.1348-10.4395L22.4902-11.0742L22.7344-12.1973Q22.832-12.6172 22.6953-12.9834Q22.5586-13.3496 22.1191-13.7891L19.9219-15.9766Q18.6719-17.2168 17.2607-17.8369Q15.8496-18.457 14.4189-18.4814Q12.9883-18.5059 11.665-17.959Q10.3418-17.4121 9.25781-16.3281ZM10.752-15.957Q11.6602-16.6211 12.7002-16.9043Q13.7402-17.1875 14.8047-17.085Q15.8691-16.9824 16.8701-16.5137Q17.8711-16.0449 18.7012-15.2051L21.1328-12.793Q21.3086-12.6172 21.3525-12.4512Q21.3965-12.2852 21.3379-12.0312L21.0156-10.5469L22.5195-9.0625L23.5059-9.12109Q23.6914-9.13086 23.7891-9.09668Q23.8867-9.0625 24.0332-8.91602L24.6094-8.33984L22.168-5.89844L21.5918-6.47461Q21.4453-6.62109 21.4062-6.71875Q21.3672-6.81641 21.377-7.01172L21.4453-7.98828L19.9512-9.47266L18.4277-9.21875Q18.1836-9.16992 18.042-9.2041Q17.9004-9.23828 17.7148-9.41406L15.7129-11.416Q15.5176-11.5918 15.4932-11.7529Q15.4688-11.9141 15.5859-12.1875L16.4648-14.2773Q15.293-15.3711 13.8281-15.791Q12.3633-16.2109 10.8398-15.7617Q10.7227-15.7324 10.6885-15.8057Q10.6543-15.8789 10.752-15.957Z"/>
  </g>
  <text style="stroke:none;fill:black;font-family:sans-serif;font-size:13;font-weight:bold;" transform="matrix(1 0 0 1 1289 1953)">Exporting</text>
  <text style="stroke:none;fill:black;font-family:sans-serif;font-size:13;" transform="matrix(1 0 0 1 1289 1971)">Symbols should be outlined when exporting to ensure the</text>
  <text style="stroke:none;fill:black;font-family:sans-serif;font-size:13;" transform="matrix(1 0 0 1 1289 1989)">design is preserved when submitting to Xcode.</text>
  <text id="template-version" style="stroke:none;fill:black;font-family:sans-serif;font-size:13;text-anchor:end;" transform="matrix(1 0 0 1 3036 1933)">Template v.3.0</text>
  <text style="stroke:none;fill:black;font-family:sans-serif;font-size:13;text-anchor:end;" transform="matrix(1 0 0 1 3036 1951)">Requires Xcode 13 or greater</text>
  <text id="descriptive-name" style="stroke:none;fill:black;font-family:sans-serif;font-size:13;text-anchor:end;" transform="matrix(1 0 0 1 3036 1969)">Generated from git.commit</text>
  <text style="stroke:none;fill:black;font-family:sans-serif;font-size:13;text-anchor:end;" transform="matrix(1 0 0 1 3036 1987)">Typeset at 100 points</text>
  <text style="stroke:none;fill:black;font-family:sans-serif;font-size:13;" transform="matrix(1 0 0 1 263 726)">Small</text>
  <text style="stroke:none;fill:black;font-family:sans-serif;font-size:13;" transform="matrix(1 0 0 1 263 1156)">Medium</text>
  <text style="stroke:none;fill:black;font-family:sans-serif;font-size:13;" transform="matrix(1 0 0 1 263 1586)">Large</text>
 </g>
 <g id="Guides">
  <g id="H-reference" style="fill:#27AAE1;stroke:none;" transform="matrix(1 0 0 1 339 696)">
   <path d="M0.976562 0L3.66211 0L29.3457-67.1387L30.0293-67.1387L30.0293-70.459L28.125-70.459ZM11.6699-24.4629L46.9727-24.4629L46.2402-26.709L12.4512-26.709ZM55.127 0L57.7637 0L30.6152-70.459L29.4434-70.459L29.4434-67.1387Z"/>
  </g>
  <line id="Baseline-S" style="fill:none;stroke:#27AAE1;opacity:1;stroke-width:0.5;" x1="263" x2="3036" y1="696" y2="696"/>
  <line id="Capline-S" style="fill:none;stroke:#27AAE1;opacity:1;stroke-width:0.5;" x1="263" x2="3036" y1="625.541" y2="625.541"/>
  <g id="H-reference" style="fill:#27AAE1;stroke:none;" transform="matrix(1 0 0 1 339 1126)">
   <path d="M0.976562 0L3.66211 0L29.3457-67.1387L30.0293-67.1387L30.0293-70.459L28.125-70.459ZM11.6699-24.4629L46.9727-24.4629L46.2402-26.709L12.4512-26.709ZM55.127 0L57.7637 0L30.6152-70.459L29.4434-70.459L29.4434-67.1387Z"/>
  </g>
  <line id="Baseline-M" style="fill:none;stroke:#27AAE1;opacity:1;stroke-width:0.5;" x1="263" x2="3036" y1="1126" y2="1126"/>
  <line id="Capline-M" style="fill:none;stroke:#27AAE1;opacity:1;stroke-width:0.5;" x1="263" x2="3036" y1="1055.54" y2="1055.54"/>
  <g id="H-reference" style="fill:#27AAE1;stroke:none;" transform="matrix(1 0 0 1 339 1556)">
   <path d="M0.976562 0L3.66211 0L29.3457-67.1387L30.0293-67.1387L30.0293-70.459L28.125-70.459ZM11.6699-24.4629L46.9727-24.4629L46.2402-26.709L12.4512-26.709ZM55.127 0L57.7637 0L30.6152-70.459L29.4434-70.459L29.4434-67.1387Z"/>
  </g>
  <line id="Baseline-L" style="fill:none;stroke:#27AAE1;opacity:1;stroke-width:0.5;" x1="263" x2="3036" y1="1556" y2="1556"/>
  <line id="Capline-L" style="fill:none;stroke:#27AAE1;opacity:1;stroke-width:0.5;" x1="263" x2="3036" y1="1485.54" y2="1485.54"/>
  <line id="left-margin-Regular-M" style="fill:none;stroke:#00AEEF;stroke-width:0.5;opacity:1.0;" x1="1396.82" x2="1396.82" y1="1030.73" y2="1150.14"/>
  <line id="right-margin-Regular-M" style="fill:none;stroke:#00AEEF;stroke-width:0.5;opacity:1.0;" x1="1502.87" x2="1502.87" y1="1030.73" y2="1150.14"/>
 </g>
 <g id="Symbols">
  <g id="Black-L" transform="matrix(1 0 0 1 2861.87 1556)">
   <path d="M123.149-43.1425C120.77-45.5209 118.108-46.6502 115.044-46.6502L104.391-46.6502C99.5441-60.0483 86.7035-69.6603 71.6552-69.6603C56.6068-69.6603 43.7662-60.0483 38.9193-46.6502L28.2666-46.6502C25.2798-46.6502 22.6172-45.5209 20.2388-43.1425C17.8605-40.7642 16.6115-37.9819 16.6115-34.7559C16.6115-31.5299 17.8605-28.7476 20.2388-26.3693C22.6172-23.9909 25.3995-22.8616 28.2666-22.8616L38.8769-22.8616C43.7237-9.46348 56.5643 0.148494 71.6127 0.148494C86.6611 0.148494 99.5017-9.46348 104.349-22.8616L115.001-22.8616C118.065-22.8616 120.89-23.9909 123.106-26.3693C125.322-28.7476 126.614-31.5299 126.614-34.7559C126.614-37.9819 125.41-40.7642 123.149-43.1425ZM71.5382-23.5683C65.3228-23.5683 60.3506-28.5406 60.3506-34.7559C60.3506-40.9712 65.3228-45.9435 71.5382-45.9435C77.7535-45.9435 82.7258-40.9712 82.7258-34.7559C82.7258-28.5406 77.7535-23.5683 71.5382-23.5683Z"/>
  </g>
  <g id="Heavy-L" transform="matrix(1 0 0 1 2565.95 1556)">
   <path d="M121.995-42.0447C119.929-44.1106 117.607-45.0979 114.95-45.0979L101.37-45.0979C97.0919-57.8789 85.0191-67.1298 70.8243-67.1298C56.6295-67.1298 44.5567-57.8789 40.2783-45.0979L26.699-45.0979C24.0723-45.0979 21.7503-44.1106 19.6844-42.0447C17.6184-39.9788 16.5398-37.5654 16.5398-34.7559C16.5398-31.9464 17.6184-29.533 19.6844-27.4671C21.7503-25.4012 24.1637-24.4139 26.699-24.4139L40.2173-24.4139C44.4958-11.6329 56.5685-2.38196 70.7634-2.38196C84.9582-2.38196 97.0309-11.6329 101.309-24.4139L114.889-24.4139C117.546-24.4139 120.02-25.4012 121.934-27.4671C123.847-29.533 124.987-31.9464 124.987-34.7559C124.987-37.5654 123.982-39.9788 121.995-42.0447ZM70.7453-23.0602C64.2477-23.0602 59.0495-28.2583 59.0495-34.7559C59.0495-41.2535 64.2477-46.4516 70.7453-46.4516C77.2429-46.4516 82.441-41.2535 82.441-34.7559C82.441-28.2583 77.2429-23.0602 70.7453-23.0602Z"/>
  </g>
  <g id="Bold-L" transform="matrix(1 0 0 1 2270.24 1556)">
   <path d="M120.523-40.6987C118.842-42.3797 116.936-43.1904 114.775-43.1904L97.5687-43.1904C93.9968-55.181 82.8891-63.9632 69.7729-63.9632C56.6566-63.9632 45.549-55.181 41.9771-43.1904L24.7702-43.1904C22.5935-43.1904 20.688-42.3797 19.0069-40.6987C17.3258-39.0176 16.4554-37.0522 16.4554-34.7559C16.4554-32.4596 17.3258-30.4942 19.0069-28.8131C20.688-27.1321 22.6534-26.3214 24.7702-26.3214L41.9013-26.3214C45.4732-14.3308 56.5809-5.54861 69.6971-5.54861C82.8134-5.54861 93.921-14.3308 97.4929-26.3214L114.7-26.3214C116.86-26.3214 118.902-27.1321 120.447-28.8131C121.993-30.4942 122.939-32.4596 122.939-34.7559C122.939-37.0522 122.173-39.0176 120.523-40.6987ZM69.7422-22.4918C62.9288-22.4918 57.478-27.9425 57.478-34.7559C57.478-41.5693 62.9288-47.02 69.7422-47.02C76.5556-47.02 82.0063-41.5693 82.0063-34.7559C82.0063-27.9425 76.5556-22.4918 69.7422-22.4918Z"/>
  </g>
  <g id="Semibold-L" transform="matrix(1 0 0 1 1974.21 1556)">
   <path d="M119.508-39.7707C118.092-41.1865 116.474-41.8753 114.655-41.8753L94.9478-41.8753C91.863-53.3211 81.4207-61.7801 69.048-61.7801C56.6753-61.7801 46.233-53.3211 43.1482-41.8753L23.4406-41.8753C21.5741-41.8753 19.9556-41.1865 18.5399-39.7707C17.1241-38.355 16.3972-36.6985 16.3972-34.7559C16.3972-32.8133 17.1241-31.1568 18.5399-29.7411C19.9556-28.3253 21.6122-27.6365 23.4406-27.6365L43.0622-27.6365C46.147-16.1907 56.5894-7.73168 68.9621-7.73168C81.3347-7.73168 91.7771-16.1907 94.8619-27.6365L114.569-27.6365C116.388-27.6365 118.131-28.3253 119.422-29.7411C120.714-31.1568 121.527-32.8133 121.527-34.7559C121.527-36.6985 120.927-38.355 119.508-39.7707ZM69.0507-22.0999C62.0196-22.0999 56.3947-27.7248 56.3947-34.7559C56.3947-41.787 62.0196-47.4119 69.0507-47.4119C76.0818-47.4119 81.7067-41.787 81.7067-34.7559C81.7067-27.7248 76.0818-22.0999 69.0507-22.0999Z"/>
  </g>
  <g id="Medium-L" transform="matrix(1 0 0 1 1678.02 1556)">
   <path d="M118.739-39.0671C117.524-40.2817 116.123-40.8782 114.564-40.8782L92.9606-40.8782C90.2451-51.9108 80.3073-60.1248 68.4984-60.1248C56.6895-60.1248 46.7517-51.9108 44.0362-40.8782L22.4324-40.8782C20.8011-40.8782 19.4003-40.2817 18.1858-39.0671C16.9712-37.8526 16.3531-36.4302 16.3531-34.7559C16.3531-33.0816 16.9712-31.6592 18.1858-30.4447C19.4003-29.2301 20.8227-28.6336 22.4324-28.6336L43.9425-28.6336C46.658-17.601 56.5958-9.38698 68.4047-9.38698C80.2136-9.38698 90.1514-17.601 92.8669-28.6336L114.471-28.6336C116.03-28.6336 117.546-29.2301 118.645-30.4447C119.745-31.6592 120.456-33.0816 120.456-34.7559C120.456-36.4302 119.981-37.8526 118.739-39.0671ZM68.5263-21.8028C61.3301-21.8028 55.5732-27.5597 55.5732-34.7559C55.5732-41.9521 61.3301-47.709 68.5263-47.709C75.7225-47.709 81.4795-41.9521 81.4795-34.7559C81.4795-27.5597 75.7225-21.8028 68.5263-21.8028Z"/>
  </g>
  <g id="Regular-L" transform="matrix(1 0 0 1 1381.99 1556)">
   <path d="M117.735-38.1494C116.783-39.1016 115.666-39.5777 114.446-39.5777L90.3686-39.5777C88.1348-50.0713 78.855-57.9657 67.7815-57.9657C56.708-57.9657 47.4282-50.0713 45.1945-39.5777L21.1174-39.5777C19.7929-39.5777 18.676-39.1016 17.7239-38.1494C16.7717-37.1972 16.2956-36.0804 16.2956-34.7559C16.2956-33.4314 16.7717-32.3146 17.7239-31.3624C18.676-30.4102 19.7929-29.9341 21.1174-29.9341L45.0907-29.9341C47.3244-19.4405 56.6042-11.5461 67.6777-11.5461C78.7512-11.5461 88.031-19.4405 90.2648-29.9341L114.342-29.9341C115.563-29.9341 116.783-30.4102 117.632-31.3624C118.48-32.3146 119.06-33.4314 119.06-34.7559C119.06-36.0804 118.748-37.1972 117.735-38.1494ZM67.8424-21.4152C60.4309-21.4152 54.5017-27.3444 54.5017-34.7559C54.5017-42.1674 60.4309-48.0966 67.8424-48.0966C75.2539-48.0966 81.1831-42.1674 81.1831-34.7559C81.1831-27.3444 75.2539-21.4152 67.8424-21.4152Z"/>
  </g>
  <g id="Light-L" transform="matrix(1 0 0 1 1086.08 1556)">
   <path d="M116.445-37.3088C115.745-38.0088 114.88-38.3588 113.954-38.3588L87.3551-38.3588C85.6257-48.138 77.1024-55.5701 66.9115-55.5701C56.7206-55.5701 48.1973-48.138 46.4679-38.3588L19.8691-38.3588C18.8809-38.3588 18.0162-38.0088 17.3162-37.3088C16.6162-36.6088 16.2662-35.7441 16.2662-34.7559C16.2662-33.7677 16.6162-32.903 17.3162-32.203C18.0162-31.503 18.8809-31.153 19.8691-31.153L46.4062-31.153C48.1356-21.3738 56.6589-13.9417 66.8497-13.9417C77.0406-13.9417 85.5639-21.3738 87.2933-31.153L113.892-31.153C114.819-31.153 115.745-31.503 116.383-32.203C117.022-32.903 117.433-33.7677 117.433-34.7559C117.433-35.7441 117.248-36.6088 116.445-37.3088ZM67.0144-21.4152C59.6029-21.4152 53.6737-27.3444 53.6737-34.7559C53.6737-42.1674 59.6029-48.0966 67.0144-48.0966C74.4259-48.0966 80.3551-42.1674 80.3551-34.7559C80.3551-27.3444 74.4259-21.4152 67.0144-21.4152Z"/>
  </g>
  <g id="Thin-L" transform="matrix(1 0 0 1 790.425 1556)">
   <path d="M114.739-36.1971C114.372-36.5636 113.841-36.7468 113.304-36.7468L83.3695-36.7468C82.3072-45.581 74.7844-52.4016 65.7609-52.4016C56.7373-52.4016 49.2146-45.581 48.1522-36.7468L18.2182-36.7468C17.6746-36.7468 17.1435-36.5636 16.777-36.1971C16.4105-35.8306 16.2273-35.2994 16.2273-34.7559C16.2273-34.2124 16.4105-33.6812 16.777-33.3147C17.1435-32.9482 17.6746-32.765 18.2182-32.765L48.146-32.765C49.2084-23.9308 56.7311-17.1102 65.7547-17.1102C74.7783-17.1102 82.301-23.9308 83.3634-32.765L113.297-32.765C113.835-32.765 114.372-32.9482 114.732-33.3147C115.093-33.6812 115.282-34.2124 115.282-34.7559C115.282-35.2994 115.264-35.8306 114.739-36.1971ZM65.9194-21.4152C58.5079-21.4152 52.5787-27.3444 52.5787-34.7559C52.5787-42.1674 58.5079-48.0966 65.9194-48.0966C73.3309-48.0966 79.2601-42.1674 79.2601-34.7559C79.2601-27.3444 73.3309-21.4152 65.9194-21.4152Z"/>
  </g>
  <g id="Ultralight-L" transform="matrix(1 0 0 1 494.255 1556)">
   <path d="M113.864-35.6277C113.669-35.8233 113.308-35.9211 112.97-35.9211L81.3281-35.9211C80.6074-44.2713 73.5972-50.7788 65.1715-50.7788C56.7458-50.7788 49.7356-44.2713 49.0149-35.9211L17.3726-35.9211C17.0568-35.9211 16.6965-35.8233 16.5008-35.6277C16.3052-35.432 16.2073-35.0717 16.2073-34.7559C16.2073-34.4401 16.3052-34.0798 16.5008-33.8841C16.6965-33.6885 17.0568-33.5907 17.3726-33.5907L49.0372-33.5907C49.7579-25.2405 56.7681-18.733 65.1938-18.733C73.6195-18.733 80.6297-25.2405 81.3504-33.5907L112.993-33.5907C113.331-33.5907 113.669-33.6885 113.887-33.8841C114.105-34.0798 114.18-34.4401 114.18-34.7559C114.18-35.0717 114.247-35.432 113.864-35.6277ZM65.3585-21.4152C57.947-21.4152 52.0178-27.3444 52.0178-34.7559C52.0178-42.1674 57.947-48.0966 65.3585-48.0966C72.77-48.0966 78.6992-42.1674 78.6992-34.7559C78.6992-27.3444 72.77-21.4152 65.3585-21.4152Z"/>
  </g>
  <g id="Black-M" transform="matrix(1 0 0 1 2877.41 1126)">
   <path d="M96.2253-42.1943C94.1484-44.2713 91.8269-45.2513 89.1434-45.2513L83.0638-45.2513C78.8886-56.0648 68.383-63.7593 56.1104-63.7593C43.8379-63.7593 33.3323-56.0648 29.157-45.2513L23.0775-45.2513C20.4996-45.2513 18.1781-44.2713 16.1012-42.1943C14.0242-40.1174 12.9273-37.679 12.9273-34.8672C12.9273-32.0554 14.0242-29.617 16.1012-27.5401C18.1781-25.4631 20.6165-24.4831 23.0775-24.4831L29.1458-24.4831C33.321-13.6696 43.8266-5.97514 56.0991-5.97514C68.3717-5.97514 78.8773-13.6696 83.0525-24.4831L89.1321-24.4831C91.8156-24.4831 94.2653-25.4631 96.214-27.5401C98.1628-29.617 99.271-32.0554 99.271-34.8672C99.271-37.679 98.1847-40.1174 96.2253-42.1943ZM55.9929-26.6364C51.4202-26.6364 47.7621-30.2945 47.7621-34.8672C47.7621-39.4399 51.4202-43.098 55.9929-43.098C60.5655-43.098 64.2237-39.4399 64.2237-34.8672C64.2237-30.2945 60.5655-26.6364 55.9929-26.6364Z"/>
  </g>
  <g id="Heavy-M" transform="matrix(1 0 0 1 2581.4 1126)">
   <path d="M95.2163-41.1986C93.4215-42.9934 91.4098-43.8462 89.0968-43.8462L80.3889-43.8462C76.7228-54.1224 66.8981-61.5066 55.3785-61.5066C43.8589-61.5066 34.0341-54.1224 30.368-43.8462L21.6602-43.8462C19.4033-43.8462 17.3915-42.9934 15.5967-41.1986C13.802-39.4039 12.8599-37.3028 12.8599-34.8672C12.8599-32.4316 13.802-30.3305 15.5967-28.5358C17.3915-26.741 19.4926-25.8882 21.6602-25.8882L30.3348-25.8882C34.0009-15.612 43.8256-8.22782 55.3452-8.22782C66.8648-8.22782 76.6896-15.612 80.3557-25.8882L89.0635-25.8882C91.3765-25.8882 93.5109-26.741 95.1831-28.5358C96.8553-30.3305 97.8306-32.4316 97.8306-34.8672C97.8306-37.3028 96.9268-39.4039 95.2163-41.1986ZM55.2942-26.1397C50.4455-26.1397 46.5666-30.0186 46.5666-34.8672C46.5666-39.7158 50.4455-43.5947 55.2942-43.5947C60.1428-43.5947 64.0217-39.7158 64.0217-34.8672C64.0217-30.0186 60.1428-26.1397 55.2942-26.1397Z"/>
  </g>
  <g id="Bold-M" transform="matrix(1 0 0 1 2285.47 1126)">
   <path d="M94.0876-40.0848C92.6084-41.564 90.9432-42.2743 89.0447-42.2743L77.3967-42.2743C74.3001-51.9496 65.237-58.9866 54.5597-58.9866C43.8824-58.9866 34.8193-51.9496 31.7227-42.2743L20.0747-42.2743C18.1769-42.2743 16.5116-41.564 15.0325-40.0848C13.5533-38.6057 12.7845-36.882 12.7845-34.8672C12.7845-32.8524 13.5533-31.1287 15.0325-29.6496C16.5116-28.1704 18.2353-27.4601 20.0747-27.4601L31.6649-27.4601C34.7615-17.7848 43.8246-10.7478 54.5019-10.7478C65.1792-10.7478 74.2423-17.7848 77.3389-27.4601L88.9869-27.4601C90.8853-27.4601 92.6669-28.1704 94.0297-29.6496C95.3926-31.1287 96.2193-32.8524 96.2193-34.8672C96.2193-36.882 95.5196-38.6057 94.0876-40.0848ZM54.5125-25.584C49.3552-25.584 45.2293-29.7099 45.2293-34.8672C45.2293-40.0245 49.3552-44.1504 54.5125-44.1504C59.6699-44.1504 63.7957-40.0245 63.7957-34.8672C63.7957-29.7099 59.6699-25.584 54.5125-25.584Z"/>
  </g>
  <g id="Semibold-M" transform="matrix(1 0 0 1 1989.3 1126)">
   <path d="M93.3094-39.317C92.0478-40.5785 90.6215-41.1907 89.0088-41.1907L75.3339-41.1907C72.6299-50.4517 64.0919-57.2494 53.9952-57.2494C43.8986-57.2494 35.3606-50.4517 32.6566-41.1907L18.9816-41.1907C17.3314-41.1907 15.905-40.5785 14.6434-39.317C13.3819-38.0554 12.7325-36.5918 12.7325-34.8672C12.7325-33.1426 13.3819-31.679 14.6434-30.4174C15.905-29.1559 17.3686-28.5437 18.9816-28.5437L32.5818-28.5437C35.2858-19.2827 43.8238-12.485 53.9205-12.485C64.0171-12.485 72.5551-19.2827 75.2591-28.5437L88.934-28.5437C90.5467-28.5437 92.085-29.1559 93.2347-30.4174C94.3843-31.679 95.1084-33.1426 95.1084-34.8672C95.1084-36.5918 94.5495-38.0554 93.3094-39.317ZM53.9737-25.2009C48.6035-25.2009 44.3074-29.497 44.3074-34.8672C44.3074-40.2374 48.6035-44.5335 53.9737-44.5335C59.3438-44.5335 63.64-40.2374 63.64-34.8672C63.64-29.497 59.3438-25.2009 53.9737-25.2009Z"/>
  </g>
  <g id="Medium-M" transform="matrix(1 0 0 1 1693 1126)">
   <path d="M92.7194-38.7347C91.6228-39.8313 90.3776-40.3691 88.9816-40.3691L73.7697-40.3691C71.3634-49.3159 63.2236-55.9321 53.5672-55.9321C43.9109-55.9321 35.771-49.3159 33.3647-40.3691L18.1529-40.3691C16.6903-40.3691 15.4451-39.8313 14.3485-38.7347C13.2519-37.6381 12.6931-36.3719 12.6931-34.8672C12.6931-33.3625 13.2519-32.0963 14.3485-30.9997C15.4451-29.9031 16.7114-29.3653 18.1529-29.3653L33.2771-29.3653C35.6834-20.4185 43.8233-13.8023 53.4796-13.8023C63.136-13.8023 71.2758-20.4185 73.6821-29.3653L88.894-29.3653C90.29-29.3653 91.6439-29.9031 92.6318-30.9997C93.6197-32.0963 94.2661-33.3625 94.2661-34.8672C94.2661-36.3719 93.8139-37.6381 92.7194-38.7347ZM53.5651-24.9105C48.0336-24.9105 43.6084-29.3357 43.6084-34.8672C43.6084-40.3987 48.0336-44.8239 53.5651-44.8239C59.0966-44.8239 63.5218-40.3987 63.5218-34.8672C63.5218-29.3357 59.0966-24.9105 53.5651-24.9105Z"/>
  </g>
  <g id="Regular-M" transform="matrix(1 0 0 1 1396.82 1126)">
   <path d="M91.9498-37.9753C91.0684-38.8567 90.0594-39.2974 88.9461-39.2974L71.7296-39.2974C69.7116-47.8344 62.091-54.214 53.009-54.214C43.9269-54.214 36.3063-47.8344 34.2883-39.2974L17.0718-39.2974C15.8541-39.2974 14.8451-38.8567 13.9637-37.9753C13.0823-37.0939 12.6417-36.0849 12.6417-34.8672C12.6417-33.6495 13.0823-32.6405 13.9637-31.7591C14.8451-30.8777 15.8541-30.437 17.0718-30.437L34.184-30.437C36.202-21.9 43.8225-15.5204 52.9046-15.5204C61.9866-15.5204 69.6072-21.9 71.6252-30.437L88.8417-30.437C89.9551-30.437 91.0684-30.8777 91.8454-31.7591C92.6225-32.6405 93.1675-33.6495 93.1675-34.8672C93.1675-36.0849 92.8544-37.0939 91.9498-37.9753ZM53.0322-24.5316C47.2902-24.5316 42.6966-29.1252 42.6966-34.8672C42.6966-40.6092 47.2902-45.2028 53.0322-45.2028C58.7742-45.2028 63.3678-40.6092 63.3678-34.8672C63.3678-29.1252 58.7742-24.5316 53.0322-24.5316Z"/>
  </g>
  <g id="Light-M" transform="matrix(1 0 0 1 1100.83 1126)">
   <path d="M90.793-37.2217C90.1377-37.877 89.3548-38.2046 88.5052-38.2046L69.0278-38.2046C67.462-46.101 60.5197-52.0662 52.229-52.0662C43.9382-52.0662 36.9959-46.101 35.4301-38.2046L15.9527-38.2046C15.0364-38.2046 14.2535-37.877 13.5982-37.2217C12.9429-36.5664 12.6153-35.7835 12.6153-34.8672C12.6153-33.9509 12.9429-33.168 13.5982-32.5127C14.2535-31.8574 15.0364-31.5298 15.9527-31.5298L35.3634-31.5298C36.9292-23.6334 43.8715-17.6682 52.1623-17.6682C60.453-17.6682 67.3953-23.6334 68.9611-31.5298L88.4385-31.5298C89.2881-31.5298 90.1377-31.8574 90.7263-32.5127C91.3149-33.168 91.7093-33.9509 91.7093-34.8672C91.7093-35.7835 91.5092-36.5664 90.793-37.2217ZM52.2899-24.5316C46.5479-24.5316 41.9543-29.1252 41.9543-34.8672C41.9543-40.6092 46.5479-45.2028 52.2899-45.2028C58.0319-45.2028 62.6255-40.6092 62.6255-34.8672C62.6255-29.1252 58.0319-24.5316 52.2899-24.5316Z"/>
  </g>
  <g id="Thin-M" transform="matrix(1 0 0 1 805.062 1126)">
   <path d="M89.263-36.2249C88.9067-36.5812 88.4228-36.7594 87.9221-36.7594L65.4546-36.7594C64.4868-43.8086 58.4415-49.2255 51.1973-49.2255C43.9531-49.2255 37.9079-43.8086 36.9401-36.7594L14.4726-36.7594C13.955-36.7594 13.4711-36.5812 13.1148-36.2249C12.7585-35.8687 12.5804-35.3848 12.5804-34.8672C12.5804-34.3496 12.7585-33.8657 13.1148-33.5095C13.4711-33.1532 13.955-32.975 14.4726-32.975L36.9233-32.975C37.891-25.9258 43.9363-20.5089 51.1805-20.5089C58.4247-20.5089 64.4699-25.9258 65.4377-32.975L87.9053-32.975C88.406-32.975 88.9067-33.1532 89.2462-33.5095C89.5856-33.8657 89.7806-34.3496 89.7806-34.8672C89.7806-35.3848 89.73-35.8687 89.263-36.2249ZM51.3081-24.5316C45.5661-24.5316 40.9725-29.1252 40.9725-34.8672C40.9725-40.6092 45.5661-45.2028 51.3081-45.2028C57.0501-45.2028 61.6437-40.6092 61.6437-34.8672C61.6437-29.1252 57.0501-24.5316 51.3081-24.5316Z"/>
  </g>
  <g id="Ultralight-M" transform="matrix(1 0 0 1 508.836 1126)">
   <path d="M88.4794-35.7144C88.2762-35.9176 87.9455-36.0191 87.6235-36.0191L63.6243-36.0191C62.9629-42.6344 57.3771-47.7705 50.669-47.7705C43.9608-47.7705 38.375-42.6344 37.7136-36.0191L13.7144-36.0191C13.4011-36.0191 13.0703-35.9176 12.8672-35.7144C12.6641-35.5113 12.5625-35.1806 12.5625-34.8672C12.5625-34.5538 12.6641-34.2231 12.8672-34.02C13.0703-33.8168 13.4011-33.7153 13.7144-33.7153L37.7222-33.7153C38.3837-27.1 43.9695-21.9639 50.6776-21.9639C57.3858-21.9639 62.9716-27.1 63.633-33.7153L87.6321-33.7153C87.9542-33.7153 88.2762-33.8168 88.488-34.02C88.6999-34.2231 88.7927-34.5538 88.7927-34.8672C88.7927-35.1806 88.8188-35.5113 88.4794-35.7144ZM50.8052-24.5316C45.0632-24.5316 40.4696-29.1252 40.4696-34.8672C40.4696-40.6092 45.0632-45.2028 50.8052-45.2028C56.5472-45.2028 61.1408-40.6092 61.1408-34.8672C61.1408-29.1252 56.5472-24.5316 50.8052-24.5316Z"/>
  </g>
  <g id="Black-S" transform="matrix(1 0 0 1 2889.35 696)">
   <path d="M75.65-40.95C73.95-42.65 72.05-43.45 69.85-43.45L65.75-43.45C62.35-52.05 53.95-58.15 44.15-58.15C34.35-58.15 25.95-52.05 22.55-43.45L18.45-43.45C16.35-43.45 14.45-42.65 12.75-40.95C11.05-39.25 10.15-37.25 10.15-34.95C10.15-32.65 11.05-30.65 12.75-28.95C14.45-27.25 16.45-26.45 18.45-26.45L22.55-26.45C25.95-17.85 34.35-11.75 44.15-11.75C53.95-11.75 62.35-17.85 65.75-26.45L69.85-26.45C72.05-26.45 74.05-27.25 75.65-28.95C77.25-30.65 78.15-32.65 78.15-34.95C78.15-37.25 77.25-39.25 75.65-40.95ZM44.05-28.65C40.55-28.65 37.75-31.45 37.75-34.95C37.75-38.45 40.55-41.25 44.05-41.25C47.55-41.25 50.35-38.45 50.35-34.95C50.35-31.45 47.55-28.65 44.05-28.65Z"/>
  </g>
  <g id="Heavy-S" transform="matrix(1 0 0 1 2593.15 696)">
   <path d="M74.9349-40.1947C73.4473-41.6823 71.7833-42.3879 69.8665-42.3879L63.8075-42.3879C60.7852-50.6103 52.8808-56.4979 43.6237-56.4979C34.3665-56.4979 26.4622-50.6103 23.4398-42.3879L17.3808-42.3879C15.5168-42.3879 13.8529-41.6823 12.3653-40.1947C10.8777-38.7072 10.0957-36.9668 10.0957-34.95C10.0957-32.9332 10.8777-31.1928 12.3653-29.7053C13.8529-28.2177 15.5932-27.5121 17.3808-27.5121L23.4162-27.5121C26.4386-19.2897 34.3429-13.4021 43.6001-13.4021C52.8572-13.4021 60.7616-19.2897 63.7839-27.5121L69.8429-27.5121C71.7597-27.5121 73.5237-28.2177 74.9113-29.7053C76.2988-31.1928 77.1044-32.9332 77.1044-34.95C77.1044-36.9668 76.346-38.7072 74.9349-40.1947ZM43.5473-28.2252C39.8113-28.2252 36.8224-31.214 36.8224-34.95C36.8224-38.686 39.8113-41.6748 43.5473-41.6748C47.2833-41.6748 50.2721-38.686 50.2721-34.95C50.2721-31.214 47.2833-28.2252 43.5473-28.2252Z"/>
  </g>
  <g id="Bold-S" transform="matrix(1 0 0 1 2297 696)">
   <path d="M74.135-39.35C72.885-40.6 71.485-41.2 69.885-41.2L61.635-41.2C59.035-49 51.685-54.65 43.035-54.65C34.385-54.65 27.035-49 24.435-41.2L16.185-41.2C14.585-41.2 13.185-40.6 11.935-39.35C10.685-38.1 10.035-36.65 10.035-34.95C10.035-33.25 10.685-31.8 11.935-30.55C13.185-29.3 14.635-28.7 16.185-28.7L24.385-28.7C26.985-20.9 34.335-15.25 42.985-15.25C51.635-15.25 58.985-20.9 61.585-28.7L69.835-28.7C71.435-28.7 72.935-29.3 74.085-30.55C75.235-31.8 75.935-33.25 75.935-34.95C75.935-36.65 75.335-38.1 74.135-39.35ZM42.985-27.75C38.985-27.75 35.785-30.95 35.785-34.95C35.785-38.95 38.985-42.15 42.985-42.15C46.985-42.15 50.185-38.95 50.185-34.95C50.185-30.95 46.985-27.75 42.985-27.75Z"/>
  </g>
  <g id="Semibold-S" transform="matrix(1 0 0 1 2000.68 696)">
   <path d="M73.5835-38.7676C72.4973-39.8538 71.2793-40.381 69.8977-40.381L60.1371-40.381C57.8283-47.8898 50.8605-53.376 42.6291-53.376C34.3977-53.376 27.4299-47.8898 25.1211-40.381L15.3605-40.381C13.9425-40.381 12.7245-39.8538 11.6383-38.7676C10.5521-37.6814 9.99314-36.4316 9.99314-34.95C9.99314-33.4684 10.5521-32.2186 11.6383-31.1324C12.7245-30.0462 13.9743-29.519 15.3605-29.519L25.0529-29.519C27.3617-22.0102 34.3295-16.524 42.5609-16.524C50.7923-16.524 57.7601-22.0102 60.0689-29.519L69.8295-29.519C71.2111-29.519 72.5291-30.0462 73.5153-31.1324C74.5015-32.2186 75.1287-33.4684 75.1287-34.95C75.1287-36.4316 74.6379-37.6814 73.5835-38.7676ZM42.5973-27.4224C38.4153-27.4224 35.0697-30.768 35.0697-34.95C35.0697-39.132 38.4153-42.4776 42.5973-42.4776C46.7793-42.4776 50.1249-39.132 50.1249-34.95C50.1249-30.768 46.7793-27.4224 42.5973-27.4224Z"/>
  </g>
  <g id="Medium-S" transform="matrix(1 0 0 1 1704.27 696)">
   <path d="M73.1654-38.326C72.2034-39.288 71.1234-39.76 69.9074-39.76L59.0014-39.76C56.9134-47.048 50.2354-52.41 42.3214-52.41C34.4074-52.41 27.7294-47.048 25.6414-39.76L14.7354-39.76C13.4554-39.76 12.3754-39.288 11.4134-38.326C10.4514-37.364 9.9614-36.266 9.9614-34.95C9.9614-33.634 10.4514-32.536 11.4134-31.574C12.3754-30.612 13.4734-30.14 14.7354-30.14L25.5594-30.14C27.6474-22.852 34.3254-17.49 42.2394-17.49C50.1534-17.49 56.8314-22.852 58.9194-30.14L69.8254-30.14C71.0414-30.14 72.2214-30.612 73.0834-31.574C73.9454-32.536 74.5174-33.634 74.5174-34.95C74.5174-36.266 74.1094-37.364 73.1654-38.326ZM42.3034-27.174C37.9834-27.174 34.5274-30.63 34.5274-34.95C34.5274-39.27 37.9834-42.726 42.3034-42.726C46.6234-42.726 50.0794-39.27 50.0794-34.95C50.0794-30.63 46.6234-27.174 42.3034-27.174Z"/>
  </g>
  <g id="Regular-S" transform="matrix(1 0 0 1 1407.94 696)">
   <path d="M72.62-37.75C71.82-38.55 70.92-38.95 69.92-38.95L57.52-38.95C55.72-45.95 49.42-51.15 41.92-51.15C34.42-51.15 28.12-45.95 26.32-38.95L13.92-38.95C12.82-38.95 11.92-38.55 11.12-37.75C10.32-36.95 9.92-36.05 9.92-34.95C9.92-33.85 10.32-32.95 11.12-32.15C11.92-31.35 12.82-30.95 13.92-30.95L26.22-30.95C28.02-23.95 34.32-18.75 41.82-18.75C49.32-18.75 55.62-23.95 57.42-30.95L69.82-30.95C70.82-30.95 71.82-31.35 72.52-32.15C73.22-32.95 73.72-33.85 73.72-34.95C73.72-36.05 73.42-36.95 72.62-37.75ZM41.92-26.85C37.42-26.85 33.82-30.45 33.82-34.95C33.82-39.45 37.42-43.05 41.92-43.05C46.42-43.05 50.02-39.45 50.02-34.95C50.02-30.45 46.42-26.85 41.92-26.85Z"/>
  </g>
  <g id="Light-S" transform="matrix(1 0 0 1 1111.87 696)">
   <path d="M71.5967-37.0833C70.9967-37.6833 70.2967-37.9833 69.53-37.9833L55.13-37.9833C53.73-44.4167 48.03-49.25 41.23-49.25C34.43-49.25 28.73-44.4167 27.33-37.9833L12.93-37.9833C12.0967-37.9833 11.3967-37.6833 10.7967-37.0833C10.1967-36.4833 9.89667-35.7833 9.89667-34.95C9.89667-34.1167 10.1967-33.4167 10.7967-32.8167C11.3967-32.2167 12.0967-31.9167 12.93-31.9167L27.2633-31.9167C28.6633-25.4833 34.3633-20.65 41.1633-20.65C47.9633-20.65 53.6633-25.4833 55.0633-31.9167L69.4633-31.9167C70.23-31.9167 70.9967-32.2167 71.53-32.8167C72.0633-33.4167 72.43-34.1167 72.43-34.95C72.43-35.7833 72.23-36.4833 71.5967-37.0833ZM41.2633-26.85C36.7633-26.85 33.1633-30.45 33.1633-34.95C33.1633-39.45 36.7633-43.05 41.2633-43.05C45.7633-43.05 49.3633-39.45 49.3633-34.95C49.3633-30.45 45.7633-26.85 41.2633-26.85Z"/>
  </g>
  <g id="Thin-S" transform="matrix(1 0 0 1 815.993 696)">
   <path d="M70.2432-36.2016C69.9077-36.5371 69.4723-36.7048 69.0142-36.7048L51.969-36.7048C51.0981-42.3887 46.1916-46.7371 40.3174-46.7371C34.4432-46.7371 29.5368-42.3887 28.6658-36.7048L11.6206-36.7048C11.14-36.7048 10.7045-36.5371 10.369-36.2016C10.0335-35.8661 9.86581-35.4306 9.86581-34.95C9.86581-34.4694 10.0335-34.0339 10.369-33.6984C10.7045-33.3629 11.14-33.1952 11.6206-33.1952L28.6432-33.1952C29.5142-27.5113 34.4206-23.1629 40.2948-23.1629C46.169-23.1629 51.0755-27.5113 51.9465-33.1952L68.9916-33.1952C69.4497-33.1952 69.9077-33.3629 70.2206-33.6984C70.5335-34.0339 70.7239-34.4694 70.7239-34.95C70.7239-35.4306 70.6561-35.8661 70.2432-36.2016ZM40.3948-26.85C35.8948-26.85 32.2948-30.45 32.2948-34.95C32.2948-39.45 35.8948-43.05 40.3948-43.05C44.8948-43.05 48.4948-39.45 48.4948-34.95C48.4948-30.45 44.8948-26.85 40.3948-26.85Z"/>
  </g>
  <g id="Ultralight-S" transform="matrix(1 0 0 1 519.711 696)">
   <path d="M69.55-35.75C69.35-35.95 69.05-36.05 68.75-36.05L50.35-36.05C49.75-41.35 45.25-45.45 39.85-45.45C34.45-45.45 29.95-41.35 29.35-36.05L10.95-36.05C10.65-36.05 10.35-35.95 10.15-35.75C9.95-35.55 9.85-35.25 9.85-34.95C9.85-34.65 9.95-34.35 10.15-34.15C10.35-33.95 10.65-33.85 10.95-33.85L29.35-33.85C29.95-28.55 34.45-24.45 39.85-24.45C45.25-24.45 49.75-28.55 50.35-33.85L68.75-33.85C69.05-33.85 69.35-33.95 69.55-34.15C69.75-34.35 69.85-34.65 69.85-34.95C69.85-35.25 69.85-35.55 69.55-35.75ZM39.95-26.85C35.45-26.85 31.85-30.45 31.85-34.95C31.85-39.45 35.45-43.05 39.95-43.05C44.45-43.05 48.05-39.45 48.05-34.95C48.05-30.45 44.45-26.85 39.95-26.85Z"/>
  </g>
 </g>
</svg>
