<svg role="img" viewBox="0 0 24 24" xmlns="http://www.w3.org/2000/svg"><title>Mozilla Firefox icon</title><path d="m15.634 0.0015347c-0.0016 5.8065e-4 -0.0041 0.0024413-0.0059 0.0031187-0.0026 0.0010161-0.0058 0.0033198-0.0085 0.0048198 0.0013-0.0017419 4e-3 -0.0056016 0.0048-0.006521-2.7374 1.6032-3.7797 4.4831-3.975 6.1419-0.01626 0.00117-0.03385 0.0023-0.04981 0.0034-1.2294 0.08453-2.4049 0.53751-3.3734 1.2998l-0.065021 0.051128a3.4527 3.4527 0 0 0-0.041961-0.03166 5.3875 5.3875 0 0 1-0.032605-2.8418c-1.1946 0.54392-2.1237 1.4037-2.7992 2.1629h-0.00539c-0.46098-0.58389-0.42849-2.51-0.40222-2.9121-0.0055162-0.02492-0.34391 0.17559-0.38823 0.20584a8.4712 8.4712 0 0 0-1.1363 0.97361 10.185 10.185 0 0 0-1.0856 1.3024 9.8149 9.8149 0 0 0-1.5604 3.5228c-0.005565 0.02521-0.010174 0.051336-0.015594 0.07674-0.021871 0.10239-0.12036 0.62193-0.13411 0.73337a13.527 13.527 0 0 0-0.17144 1.6224c0 0.01984-0.001229 0.03946-0.001229 0.05935 0 6.4215 5.2065 11.627 11.628 11.627 5.7513 0 10.527-4.1753 11.462-9.6596 0.01969-0.14884 0.03555-0.29838 0.05292-0.44853 0.23115-1.994-0.02569-4.0899-0.75426-5.8428l2.84e-4 9.43e-5c-0.5054-1.2157-1.5291-2.5281-2.3329-2.9429 0.6542 1.2825 1.0328 2.569 1.1775 3.5292 0 0.00189 8.14e-4 0.0066 0.0024 0.019374-1.315-3.2774-3.5447-4.599-5.3653-7.4763-0.091937-0.1455-0.18407-0.29145-0.27388-0.44522a3.5669 3.5669 0 0 1-0.12806-0.24052 2.1145 2.1145 0 0 1-0.17389-0.45996 0.030291 0.030291 0 0 0-0.02637-0.031187 0.039581 0.039581 0 0 0-0.02183 0zm-3.6041 6.4397c1.635 0 3.1118 0.6742 4.1768 1.7608 0.35491 0.36208 0.66414 0.76996 0.91823 1.2139-0.31261-0.21958-0.74991-0.43732-1.2435-0.57611-0.11559-0.032496-0.23424-0.060665-0.35516-0.083449-7e-3 -0.00133-0.01402-0.00258-0.02107-0.00387-0.12189-0.022288-0.2459-0.039117-0.37132-0.049427-0.0065-5.322e-4 -0.01289-0.00101-0.01937-0.00151-0.12607-0.00968-0.2534-0.012695-0.38115-0.00813-0.0062 2.211e-4 -0.01233 4.993e-4 -0.01852 7.563e-4 -0.12826 0.00533-0.25689 0.018299-0.38493 0.040165-0.0029 4.994e-4 -0.0059 4.36e-4 -0.0088 9.45e-4 1.41e-4 7.07e-5 2.36e-4 2.124e-4 3.78e-4 2.836e-4 -9.3e-5 1.59e-5 -1.91e-4 -1.65e-5 -2.84e-4 0 0.0026 0.00131 0.0051 0.00275 0.0077 0.00406 0.12526 0.062923 0.24576 0.13048 0.36149 0.20224 0.0046 0.00286 0.0092 0.00573 0.0138 0.0086 0.11579 0.07238 0.22682 0.14898 0.33304 0.22956 0.0038 0.00289 0.0076 0.00579 0.01144 0.00869 0.10698 0.081692 0.20914 0.16726 0.30639 0.25659 1e-3 9.324e-4 0.0021 0.00181 0.0031 0.00274 7.08e-4 6.513e-4 0.0014 0.00133 0.0021 0.00198 0.09757 0.089912 0.19017 0.1836 0.27794 0.2805 0.0023 0.00256 0.0047 0.00509 7e-3 0.00765 0.08807 0.097684 0.17131 0.1986 0.2495 0.30261 2.41e-4 3.2e-4 5.15e-4 6.23e-4 7.56e-4 9.45e-4 1.1e-4 1.46e-4 1.73e-4 3.26e-4 2.83e-4 4.72e-4 0.07857 0.10459 0.15215 0.21222 0.22077 0.32246 6.5e-4 1e-3 0.0013 0.0021 2e-3 0.0031 0.06917 0.11132 0.13334 0.22524 0.19242 0.34155 0.02178 0.04288 0.03932 0.0876 0.05973 0.13108 0.03499 0.07454 0.07147 0.14847 0.10245 0.22464 0.03324 0.08175 0.06096 0.16545 0.08959 0.24884 0.01361 0.03964 0.02996 0.07835 0.04253 0.11832 0.01222 0.03885 0.02071 0.07871 0.03194 0.11785 0.02464 0.08586 0.05019 0.1715 0.07012 0.25857 2.2e-5 9.7e-5 7.2e-5 1.87e-4 9.4e-5 2.83e-4 0.63814 2.7884-1.1379 6.1332-5.1224 5.9463a5.1649 5.1649 0 0 1-1.5131-0.2918 6.5086 6.5086 0 0 1-0.34155-0.13959c-0.065613-0.0299-0.13122-0.06017-0.19601-0.09366 5.033e-4 3.46e-4 0.00113 6.82e-4 0.0017 1e-3 -5.298e-4 -2.73e-4 -0.00108-4.82e-4 -0.00161-7.56e-4 0.00173 0.0012 0.00387 0.0024 0.00586 0.0036a6.9731 6.9731 0 0 1-0.13127-0.0653c0.041413 0.02078 0.08197 0.04218 0.12532 0.06152-0.00134-6.91e-4 -0.00263-0.0015-0.00397-0.0022 0.00133 6.02e-4 0.00254 0.0013 0.00387 0.0019-0.70999-0.36692-1.3582-0.89702-1.8471-1.5459-6.82e-5 -9.1e-5 -1.205e-4 -1.93e-4 -1.892e-4 -2.84e-4 -0.061039-0.08102-0.11961-0.16392-0.1755-0.24855-7.74e-5 -1.17e-4 -1.118e-4 -2.61e-4 -1.887e-4 -3.78e-4 -0.055895-0.08466-0.10917-0.17103-0.15953-0.25914-5.61e-5 -9.8e-5 -1.33e-4 -1.86e-4 -1.892e-4 -2.83e-4 -0.050356-0.08811-0.097789-0.17796-0.14223-0.26934-4.89e-5 -1e-4 -1.403e-4 -1.82e-4 -1.892e-4 -2.83e-4 -0.044437-0.09139-0.085753-0.18441-0.1239-0.27889-0.03818-0.09459-0.073125-0.19063-0.10462-0.28815-0.094482-0.29257-0.15796-0.59797-0.18542-0.91378 0 0 0.00985-0.03514 0.032983-0.09413 0.020316-0.05194 0.052124-0.12372 0.097814-0.20896 0.00289-0.0054 0.00559-0.01038 0.0086-0.01588 0.049453-0.09033 0.11489-0.19483 0.19969-0.30667 0.18069-0.23816 0.44987-0.50905 0.84508-0.74736 0.090058-0.05432 0.18677-0.10687 0.29032-0.15698 0.00812-0.0039 0.016271-0.0078 0.024477-0.01172 0.10478-0.04977 0.21662-0.09696 0.33588-0.14082 0.00854-0.0031 0.017091-0.0063 0.025706-0.0094 0.12117-0.04368 0.25001-0.08387 0.38682-0.11983 0.00892-0.0023 0.017851-0.0047 0.02684-7e-3 0.14002-0.03597 0.28817-0.06752 0.44532-0.09375 0.00614-1e-3 0.012263-0.0021 0.018429-0.0031 0.15852-0.02593 0.32618-0.04632 0.50296-0.06067 0.0096-7.78e-4 0.01919-0.0015 0.02882-0.0023 0.17673-0.01359 0.36278-0.02098 0.55853-0.02136 0.0052-1e-5 0.01001-2.83e-4 0.01522-2.83e-4 0.35749 0 1.3795-0.99745 1.3984-1.2867-2e-6 -4.5e-5 -1.86e-4 -1.44e-4 -1.89e-4 -1.89e-4 -1e-6 -1.2e-5 1e-6 -8.3e-5 0-9.5e-5 -1e-6 -2.7e-5 -1.88e-4 -1.61e-4 -1.89e-4 -1.88e-4 -0.0011-0.01179-0.03258-0.03422-0.08846-0.06606-0.39661-0.22634-2.0368-0.92889-2.7287-1.6106-0.4214-0.41516-0.62154-0.61538-0.79877-0.7656 0.91888-0.72325 2.0342-1.153 3.2007-1.2331 0.0073-5.061e-4 0.01462-9.963e-4 0.02193-0.00151 0.12085-0.00853 0.24164-0.017464 0.36442-0.018523 0.0074-6.44e-5 0.01468-7.563e-4 0.02211-7.563e-4zm9.5928 2.2051c5.8e-4 0.00411 0.0013 0.00836 0.0019 0.012475l-3.78e-4 -0.00123z" fill="#fff"/></svg>
