<svg role="img"
   viewBox="0 0 210 297"
   xmlns="http://www.w3.org/2000/svg">
   <title>Finamp icon</title>
   <path
       d="M 69.370216,241.70457 C 50.612585,216.22412 40.075179,174.495 36.128998,110.06608 33.495274,67.065618 44.085825,59.226924 92.567634,68.292508 c 20.934416,3.914496 27.827066,4.198089 67.943236,2.795479 15.01644,-0.525043 24.24345,-0.51262 24.24345,0.03203 0,2.02352 -25.20667,26.40015 -30.51241,29.507633 -5.41098,3.16913 -5.88645,3.26795 -17.41763,3.61937 -7.67759,0.23415 -15.65652,-0.17009 -22.64411,-1.14686 -25.347573,-3.543166 -36.936862,-0.7853 -42.62579,10.14353 -1.529767,2.93881 -2.116814,6.06888 -2.414344,12.87312 -0.48661,11.12778 0.442174,17.231 6.870204,45.14563 8.542177,37.09557 9.801925,52.50941 5.33119,65.22953 -1.971968,5.6106 -5.317334,11.03143 -6.807825,11.03143 -0.483648,0 -2.807164,-2.61877 -5.163389,-5.81948 z m 35.127024,-56.85485 c -1.42116,-0.77103 -3.48289,-3.16401 -4.581609,-5.31769 -2.833376,-5.55388 -7.34604,-27.6604 -8.030213,-39.33817 -0.530095,-9.04772 -0.416003,-10.08518 1.345967,-12.2394 1.71807,-2.10052 2.566639,-2.33623 7.887475,-2.19094 8.99051,0.24553 36.88418,8.63901 44.81806,13.48633 4.77149,2.91519 5.6724,5.8241 3.30988,10.68687 -3.36134,6.91866 -25.14851,29.96587 -32.75071,34.64485 -3.38073,2.08076 -8.44917,2.194 -11.99885,0.2683 z"
       style="fill:#fff"/></svg>
